M48
METRIC,LZ,000.000
;FILE_FORMAT=3:3
;TYPE=PLATED
;Layer: PTH_Through_Via
;EasyEDA v6.5.23, 2023-04-30 22:23:46
;780a14c897c5458fb3efe7b42501c717,664421963ecb4a5db0a4e46f32b0c09c,10
;Gerber Generator version 0.2
;Holesize 1 = 0.305 mm
T01C0.305
%
G05
G90
T01
X014605Y015621
X012192Y015621
X007620Y015621
X015685Y003175
X002921Y028829
X001080Y006858
X001080Y003874
X015367Y029210
X011240Y029210
X019558Y028448
X003937Y015748
X004064Y007874
X016891Y003937
X001080Y004826
X001080Y005842
X008509Y018796
X008636Y023622
X013081Y024511
X013081Y019304
X001080Y007874
X005969Y012065
X013335Y014986
X017844Y008001
X021209Y012954
X021209Y002413
X021146Y026797
X021146Y029401
M30
