G04 Layer: TopSilkscreenLayer*
G04 EasyEDA v6.5.23, 2023-04-30 22:23:46*
G04 780a14c897c5458fb3efe7b42501c717,664421963ecb4a5db0a4e46f32b0c09c,10*
G04 Gerber Generator version 0.2*
G04 Scale: 100 percent, Rotated: No, Reflected: No *
G04 Dimensions in millimeters *
G04 leading zeros omitted , absolute positions ,4 integer and 5 decimal *
%FSLAX45Y45*%
%MOMM*%

%ADD10C,0.1000*%
%ADD11C,0.2032*%
%ADD12C,0.1600*%
%ADD13C,0.1524*%
%ADD14C,0.1250*%
%ADD15C,0.2540*%
%ADD16C,0.0132*%

%LPD*%
D10*
X508685Y2811322D02*
G01*
X508685Y2759252D01*
X482523Y2785414D02*
G01*
X534593Y2785414D01*
X907973Y2813608D02*
G01*
X907973Y2752902D01*
X907973Y2813608D02*
G01*
X934135Y2813608D01*
X942771Y2810814D01*
X945565Y2807766D01*
X948359Y2802178D01*
X948359Y2796336D01*
X945565Y2790494D01*
X942771Y2787700D01*
X934135Y2784652D01*
X907973Y2784652D01*
X928293Y2784652D02*
G01*
X948359Y2752902D01*
X1345107Y2799130D02*
G01*
X1342059Y2804972D01*
X1336471Y2810814D01*
X1330629Y2813608D01*
X1318945Y2813608D01*
X1313357Y2810814D01*
X1307515Y2804972D01*
X1304721Y2799130D01*
X1301673Y2790494D01*
X1301673Y2776016D01*
X1304721Y2767380D01*
X1307515Y2761792D01*
X1313357Y2755950D01*
X1318945Y2752902D01*
X1330629Y2752902D01*
X1336471Y2755950D01*
X1342059Y2761792D01*
X1345107Y2767380D01*
X1345107Y2776016D01*
X1330629Y2776016D02*
G01*
X1345107Y2776016D01*
X1720773Y2807258D02*
G01*
X1720773Y2746552D01*
X1720773Y2807258D02*
G01*
X1746935Y2807258D01*
X1755571Y2804464D01*
X1758365Y2801416D01*
X1761159Y2795828D01*
X1761159Y2789986D01*
X1758365Y2784144D01*
X1755571Y2781350D01*
X1746935Y2778302D01*
X1720773Y2778302D02*
G01*
X1746935Y2778302D01*
X1755571Y2775508D01*
X1758365Y2772714D01*
X1761159Y2766872D01*
X1761159Y2758236D01*
X1758365Y2752394D01*
X1755571Y2749600D01*
X1746935Y2746552D01*
X1720773Y2746552D01*
D11*
X2093061Y136956D02*
G01*
X2166721Y136956D01*
X919378Y396087D02*
G01*
X919378Y322427D01*
X882548Y359257D02*
G01*
X956208Y359257D01*
X1054506Y408279D02*
G01*
X1099464Y408279D01*
X1074826Y375513D01*
X1087272Y375513D01*
X1095400Y371449D01*
X1099464Y367385D01*
X1103528Y355193D01*
X1103528Y347065D01*
X1099464Y334619D01*
X1091336Y326491D01*
X1078890Y322427D01*
X1066698Y322427D01*
X1054506Y326491D01*
X1050442Y330555D01*
X1046378Y338683D01*
X1134770Y342747D02*
G01*
X1130452Y338683D01*
X1134770Y334619D01*
X1138834Y338683D01*
X1134770Y342747D01*
X1222908Y408279D02*
G01*
X1182014Y322427D01*
X1165758Y408279D02*
G01*
X1222908Y408279D01*
X1250086Y408279D02*
G01*
X1282852Y322427D01*
X1315364Y408279D02*
G01*
X1282852Y322427D01*
X91541Y161086D02*
G01*
X91541Y87426D01*
X54711Y124256D02*
G01*
X128371Y124256D01*
D10*
X2074595Y418642D02*
G01*
X2099741Y418642D01*
X2086025Y400608D01*
X2092883Y400608D01*
X2097455Y398322D01*
X2099741Y396036D01*
X2102027Y389178D01*
X2102027Y384606D01*
X2099741Y377748D01*
X2095169Y373176D01*
X2088311Y371144D01*
X2081453Y371144D01*
X2074595Y373176D01*
X2072309Y375462D01*
X2070023Y380034D01*
X2119299Y382320D02*
G01*
X2117013Y380034D01*
X2119299Y377748D01*
X2121585Y380034D01*
X2119299Y382320D01*
X2140889Y418642D02*
G01*
X2166035Y418642D01*
X2152319Y400608D01*
X2159177Y400608D01*
X2163749Y398322D01*
X2166035Y396036D01*
X2168321Y389178D01*
X2168321Y384606D01*
X2166035Y377748D01*
X2161463Y373176D01*
X2154605Y371144D01*
X2147747Y371144D01*
X2140889Y373176D01*
X2138857Y375462D01*
X2136571Y380034D01*
X2082723Y1233982D02*
G01*
X2082723Y1186484D01*
X2082723Y1233982D02*
G01*
X2103297Y1233982D01*
X2110155Y1231696D01*
X2112441Y1229664D01*
X2114727Y1225092D01*
X2114727Y1220520D01*
X2112441Y1215948D01*
X2110155Y1213662D01*
X2103297Y1211376D01*
X2082723Y1211376D01*
X2098725Y1211376D02*
G01*
X2114727Y1186484D01*
X2129713Y1233982D02*
G01*
X2161463Y1186484D01*
X2161463Y1233982D02*
G01*
X2129713Y1186484D01*
X2098725Y1030782D02*
G01*
X2098725Y983284D01*
X2082723Y1030782D02*
G01*
X2114727Y1030782D01*
X2129713Y1030782D02*
G01*
X2161463Y983284D01*
X2161463Y1030782D02*
G01*
X2129713Y983284D01*
X2104313Y610666D02*
G01*
X2102027Y615238D01*
X2097455Y619556D01*
X2092883Y621842D01*
X2083739Y621842D01*
X2079167Y619556D01*
X2074595Y615238D01*
X2072309Y610666D01*
X2070023Y603808D01*
X2070023Y592378D01*
X2072309Y585520D01*
X2074595Y580948D01*
X2079167Y576376D01*
X2083739Y574344D01*
X2092883Y574344D01*
X2097455Y576376D01*
X2102027Y580948D01*
X2104313Y585520D01*
X2104313Y592378D01*
X2092883Y592378D02*
G01*
X2104313Y592378D01*
X2119299Y621842D02*
G01*
X2119299Y574344D01*
X2119299Y621842D02*
G01*
X2151049Y574344D01*
X2151049Y621842D02*
G01*
X2151049Y574344D01*
X2166035Y621842D02*
G01*
X2166035Y574344D01*
X2166035Y621842D02*
G01*
X2182037Y621842D01*
X2188641Y619556D01*
X2193213Y615238D01*
X2195499Y610666D01*
X2197785Y603808D01*
X2197785Y592378D01*
X2195499Y585520D01*
X2193213Y580948D01*
X2188641Y576376D01*
X2182037Y574344D01*
X2166035Y574344D01*
X2104313Y806246D02*
G01*
X2102027Y810818D01*
X2097455Y815136D01*
X2092883Y817422D01*
X2083739Y817422D01*
X2079167Y815136D01*
X2074595Y810818D01*
X2072309Y806246D01*
X2070023Y799388D01*
X2070023Y787958D01*
X2072309Y781100D01*
X2074595Y776528D01*
X2079167Y771956D01*
X2083739Y769924D01*
X2092883Y769924D01*
X2097455Y771956D01*
X2102027Y776528D01*
X2104313Y781100D01*
X2104313Y787958D01*
X2092883Y787958D02*
G01*
X2104313Y787958D01*
X2119299Y817422D02*
G01*
X2119299Y769924D01*
X2119299Y817422D02*
G01*
X2139619Y817422D01*
X2146477Y815136D01*
X2148763Y813104D01*
X2151049Y808532D01*
X2151049Y801674D01*
X2148763Y797102D01*
X2146477Y794816D01*
X2139619Y792530D01*
X2119299Y792530D01*
X2179751Y817422D02*
G01*
X2172893Y815136D01*
X2168321Y808532D01*
X2166035Y797102D01*
X2166035Y790244D01*
X2168321Y778814D01*
X2172893Y771956D01*
X2179751Y769924D01*
X2184069Y769924D01*
X2190927Y771956D01*
X2195499Y778814D01*
X2197785Y790244D01*
X2197785Y797102D01*
X2195499Y808532D01*
X2190927Y815136D01*
X2184069Y817422D01*
X2179751Y817422D01*
D12*
X349173Y2503728D02*
G01*
X349173Y2444800D01*
X345617Y2433624D01*
X341807Y2430068D01*
X334441Y2426258D01*
X327075Y2426258D01*
X319709Y2430068D01*
X316153Y2433624D01*
X312343Y2444800D01*
X312343Y2452166D01*
X373557Y2503728D02*
G01*
X373557Y2426258D01*
X373557Y2426258D02*
G01*
X417753Y2426258D01*
X497255Y2485186D02*
G01*
X493445Y2492552D01*
X486079Y2499918D01*
X478713Y2503728D01*
X464235Y2503728D01*
X456869Y2499918D01*
X449503Y2492552D01*
X445693Y2485186D01*
X442137Y2474264D01*
X442137Y2455722D01*
X445693Y2444800D01*
X449503Y2437434D01*
X456869Y2430068D01*
X464235Y2426258D01*
X478713Y2426258D01*
X486079Y2430068D01*
X493445Y2437434D01*
X497255Y2444800D01*
X558469Y2503728D02*
G01*
X558469Y2444800D01*
X554659Y2433624D01*
X551103Y2430068D01*
X543737Y2426258D01*
X536371Y2426258D01*
X529005Y2430068D01*
X525195Y2433624D01*
X521639Y2444800D01*
X521639Y2452166D01*
X582599Y2503728D02*
G01*
X582599Y2426258D01*
X582599Y2426258D02*
G01*
X626795Y2426258D01*
X706297Y2485186D02*
G01*
X702741Y2492552D01*
X695375Y2499918D01*
X688009Y2503728D01*
X673277Y2503728D01*
X665911Y2499918D01*
X658545Y2492552D01*
X654735Y2485186D01*
X651179Y2474264D01*
X651179Y2455722D01*
X654735Y2444800D01*
X658545Y2437434D01*
X665911Y2430068D01*
X673277Y2426258D01*
X688009Y2426258D01*
X695375Y2430068D01*
X702741Y2437434D01*
X706297Y2444800D01*
X767511Y2503728D02*
G01*
X767511Y2444800D01*
X763701Y2433624D01*
X760145Y2430068D01*
X752779Y2426258D01*
X745413Y2426258D01*
X738047Y2430068D01*
X734237Y2433624D01*
X730681Y2444800D01*
X730681Y2452166D01*
X791895Y2503728D02*
G01*
X791895Y2426258D01*
X791895Y2426258D02*
G01*
X836091Y2426258D01*
X915593Y2485186D02*
G01*
X911783Y2492552D01*
X904417Y2499918D01*
X897051Y2503728D01*
X882319Y2503728D01*
X874953Y2499918D01*
X867587Y2492552D01*
X864031Y2485186D01*
X860221Y2474264D01*
X860221Y2455722D01*
X864031Y2444800D01*
X867587Y2437434D01*
X874953Y2430068D01*
X882319Y2426258D01*
X897051Y2426258D01*
X904417Y2430068D01*
X911783Y2437434D01*
X915593Y2444800D01*
X976553Y2503728D02*
G01*
X976553Y2444800D01*
X972997Y2433624D01*
X969187Y2430068D01*
X961821Y2426258D01*
X954455Y2426258D01*
X947089Y2430068D01*
X943533Y2433624D01*
X939723Y2444800D01*
X939723Y2452166D01*
X1000937Y2503728D02*
G01*
X1000937Y2426258D01*
X1000937Y2426258D02*
G01*
X1045133Y2426258D01*
X1124635Y2485186D02*
G01*
X1120825Y2492552D01*
X1113459Y2499918D01*
X1106093Y2503728D01*
X1091615Y2503728D01*
X1084249Y2499918D01*
X1076883Y2492552D01*
X1073073Y2485186D01*
X1069517Y2474264D01*
X1069517Y2455722D01*
X1073073Y2444800D01*
X1076883Y2437434D01*
X1084249Y2430068D01*
X1091615Y2426258D01*
X1106093Y2426258D01*
X1113459Y2430068D01*
X1120825Y2437434D01*
X1124635Y2444800D01*
D13*
X214833Y431723D02*
G01*
X292811Y431723D01*
X308305Y437057D01*
X318719Y447471D01*
X324053Y462965D01*
X324053Y473379D01*
X318719Y488873D01*
X308305Y499287D01*
X292811Y504621D01*
X214833Y504621D01*
X240741Y543991D02*
G01*
X235661Y543991D01*
X225247Y549325D01*
X220167Y554405D01*
X214833Y564819D01*
X214833Y585647D01*
X220167Y596061D01*
X225247Y601141D01*
X235661Y606475D01*
X246075Y606475D01*
X256489Y601141D01*
X271983Y590727D01*
X324053Y538911D01*
X324053Y611555D01*
X382777Y1156207D02*
G01*
X377443Y1166621D01*
X367029Y1177035D01*
X356869Y1182115D01*
X336042Y1182115D01*
X325627Y1177035D01*
X315213Y1166621D01*
X309879Y1156207D01*
X304800Y1140459D01*
X304800Y1114551D01*
X309879Y1099057D01*
X315213Y1088643D01*
X325627Y1078229D01*
X336042Y1073150D01*
X356869Y1073150D01*
X367029Y1078229D01*
X377443Y1088643D01*
X382777Y1099057D01*
X468884Y1182115D02*
G01*
X417068Y1109471D01*
X495045Y1109471D01*
X468884Y1182115D02*
G01*
X468884Y1073150D01*
X469902Y2147315D02*
G01*
X469902Y2069337D01*
X474982Y2053843D01*
X485396Y2043429D01*
X501144Y2038350D01*
X511558Y2038350D01*
X527052Y2043429D01*
X537466Y2053843D01*
X542546Y2069337D01*
X542546Y2147315D01*
X576836Y2126487D02*
G01*
X587250Y2131821D01*
X602998Y2147315D01*
X602998Y2038350D01*
X1789938Y1825373D02*
G01*
X1862836Y1825373D01*
X1789938Y1825373D02*
G01*
X1789938Y1870331D01*
X1824736Y1825373D02*
G01*
X1824736Y1853059D01*
X1862836Y1825373D02*
G01*
X1862836Y1870331D01*
X1800352Y1941705D02*
G01*
X1793493Y1934847D01*
X1789938Y1924433D01*
X1789938Y1910463D01*
X1793493Y1900303D01*
X1800352Y1893191D01*
X1807209Y1893191D01*
X1814322Y1896747D01*
X1817623Y1900303D01*
X1821179Y1907161D01*
X1828038Y1927989D01*
X1831593Y1934847D01*
X1835150Y1938403D01*
X1842007Y1941705D01*
X1852422Y1941705D01*
X1859279Y1934847D01*
X1862836Y1924433D01*
X1862836Y1910463D01*
X1859279Y1900303D01*
X1852422Y1893191D01*
X1789938Y1964565D02*
G01*
X1862836Y1964565D01*
X1789938Y1964565D02*
G01*
X1789938Y1995807D01*
X1793493Y2006221D01*
X1797050Y2009523D01*
X1803907Y2013079D01*
X1814322Y2013079D01*
X1821179Y2009523D01*
X1824736Y2006221D01*
X1828038Y1995807D01*
X1828038Y1964565D01*
X1789938Y2056767D02*
G01*
X1793493Y2046353D01*
X1803907Y2039495D01*
X1821179Y2035939D01*
X1831593Y2035939D01*
X1848865Y2039495D01*
X1859279Y2046353D01*
X1862836Y2056767D01*
X1862836Y2063625D01*
X1859279Y2074039D01*
X1848865Y2080897D01*
X1831593Y2084453D01*
X1821179Y2084453D01*
X1803907Y2080897D01*
X1793493Y2074039D01*
X1789938Y2063625D01*
X1789938Y2056767D01*
X1789938Y2114171D02*
G01*
X1789938Y2152271D01*
X1817623Y2131443D01*
X1817623Y2141857D01*
X1821179Y2148969D01*
X1824736Y2152271D01*
X1835150Y2155827D01*
X1842007Y2155827D01*
X1852422Y2152271D01*
X1859279Y2145413D01*
X1862836Y2134999D01*
X1862836Y2124585D01*
X1859279Y2114171D01*
X1855723Y2110869D01*
X1848865Y2107313D01*
X1535938Y1825373D02*
G01*
X1608836Y1825373D01*
X1535938Y1825373D02*
G01*
X1535938Y1870331D01*
X1570736Y1825373D02*
G01*
X1570736Y1853059D01*
X1608836Y1825373D02*
G01*
X1608836Y1870331D01*
X1546352Y1941705D02*
G01*
X1539493Y1934847D01*
X1535938Y1924433D01*
X1535938Y1910463D01*
X1539493Y1900303D01*
X1546352Y1893191D01*
X1553209Y1893191D01*
X1560322Y1896747D01*
X1563623Y1900303D01*
X1567179Y1907161D01*
X1574038Y1927989D01*
X1577593Y1934847D01*
X1581150Y1938403D01*
X1588007Y1941705D01*
X1598422Y1941705D01*
X1605279Y1934847D01*
X1608836Y1924433D01*
X1608836Y1910463D01*
X1605279Y1900303D01*
X1598422Y1893191D01*
X1535938Y1964565D02*
G01*
X1608836Y1964565D01*
X1535938Y1964565D02*
G01*
X1535938Y1995807D01*
X1539493Y2006221D01*
X1543050Y2009523D01*
X1549907Y2013079D01*
X1560322Y2013079D01*
X1567179Y2009523D01*
X1570736Y2006221D01*
X1574038Y1995807D01*
X1574038Y1964565D01*
X1535938Y2056767D02*
G01*
X1539493Y2046353D01*
X1549907Y2039495D01*
X1567179Y2035939D01*
X1577593Y2035939D01*
X1594865Y2039495D01*
X1605279Y2046353D01*
X1608836Y2056767D01*
X1608836Y2063625D01*
X1605279Y2074039D01*
X1594865Y2080897D01*
X1577593Y2084453D01*
X1567179Y2084453D01*
X1549907Y2080897D01*
X1539493Y2074039D01*
X1535938Y2063625D01*
X1535938Y2056767D01*
X1535938Y2141857D02*
G01*
X1584452Y2107313D01*
X1584452Y2159383D01*
X1535938Y2141857D02*
G01*
X1608836Y2141857D01*
X1048105Y1261922D02*
G01*
X1037691Y1272082D01*
X1022197Y1277416D01*
X1001369Y1277416D01*
X985875Y1272082D01*
X975461Y1261922D01*
X975461Y1251508D01*
X980541Y1241094D01*
X985875Y1235760D01*
X996035Y1230680D01*
X1027277Y1220266D01*
X1037691Y1214932D01*
X1043025Y1209852D01*
X1048105Y1199438D01*
X1048105Y1183944D01*
X1037691Y1173530D01*
X1022197Y1168196D01*
X1001369Y1168196D01*
X985875Y1173530D01*
X975461Y1183944D01*
X1082395Y1277416D02*
G01*
X1108303Y1168196D01*
X1134465Y1277416D02*
G01*
X1108303Y1168196D01*
X1134465Y1277416D02*
G01*
X1160373Y1168196D01*
X1186281Y1277416D02*
G01*
X1160373Y1168196D01*
X1220571Y1256588D02*
G01*
X1230985Y1261922D01*
X1246479Y1277416D01*
X1246479Y1168196D01*
X1570227Y597407D02*
G01*
X1564893Y607821D01*
X1554479Y618235D01*
X1544320Y623315D01*
X1523491Y623315D01*
X1513077Y618235D01*
X1502663Y607821D01*
X1497329Y597407D01*
X1492250Y581659D01*
X1492250Y555751D01*
X1497329Y540257D01*
X1502663Y529843D01*
X1513077Y519429D01*
X1523491Y514350D01*
X1544320Y514350D01*
X1554479Y519429D01*
X1564893Y529843D01*
X1570227Y540257D01*
X1614931Y623315D02*
G01*
X1672081Y623315D01*
X1640839Y581659D01*
X1656334Y581659D01*
X1666747Y576579D01*
X1672081Y571500D01*
X1677161Y555751D01*
X1677161Y545337D01*
X1672081Y529843D01*
X1661668Y519429D01*
X1645920Y514350D01*
X1630425Y514350D01*
X1614931Y519429D01*
X1609597Y524509D01*
X1604518Y534923D01*
G36*
X1187450Y890778D02*
G01*
X1187450Y755751D01*
X1261465Y755751D01*
X1261465Y890778D01*
G37*
D14*
X654662Y603250D02*
G01*
X660400Y603250D01*
X660400Y438150D01*
X464667Y603250D02*
G01*
X551332Y603250D01*
X456333Y438150D02*
G01*
X355600Y438150D01*
X355600Y603250D01*
X361340Y603250D01*
X660400Y438150D02*
G01*
X559666Y438150D01*
D13*
X689119Y1042860D02*
G01*
X548119Y1042860D01*
X548119Y862139D02*
G01*
X689119Y862139D01*
X704359Y877379D02*
G01*
X704359Y1027620D01*
X326880Y1042860D02*
G01*
X467880Y1042860D01*
X467880Y862139D02*
G01*
X326880Y862139D01*
X311640Y877379D02*
G01*
X311640Y1027620D01*
D15*
X1676400Y2608579D02*
G01*
X1996439Y2608579D01*
X1996439Y1389379D01*
X1676400Y1389379D01*
X1676400Y2608579D01*
X256539Y2608579D01*
X256539Y1389379D01*
X1676400Y1389379D01*
X1417320Y1869439D02*
G01*
X1417320Y2346959D01*
X916939Y2346959D01*
X916939Y1869439D01*
X1417320Y1869439D01*
X896619Y1529079D02*
G01*
X896619Y1767839D01*
X637539Y1767839D01*
X637539Y1529079D01*
X896619Y1529079D01*
X777239Y1869439D02*
G01*
X777239Y2346959D01*
X276860Y2346959D01*
X276860Y1869439D01*
X777239Y1869439D01*
X953457Y922756D02*
G01*
X1273462Y922756D01*
X1273462Y722756D01*
X953457Y722756D01*
X953457Y922756D01*
X840056Y532757D02*
G01*
X823460Y532757D01*
X823460Y647824D01*
X1040056Y532757D02*
G01*
X986863Y532757D01*
X1240055Y532757D02*
G01*
X1186863Y532757D01*
X1403456Y647824D02*
G01*
X1403456Y532757D01*
X1386862Y532757D01*
X1386862Y1112756D02*
G01*
X1403459Y1112756D01*
X1403459Y997689D01*
X1186863Y1112756D02*
G01*
X1240055Y1112756D01*
X986863Y1112756D02*
G01*
X1040056Y1112756D01*
X823462Y997689D02*
G01*
X823462Y1112756D01*
X840056Y1112756D01*
X1403456Y997689D02*
G01*
X1403456Y647824D01*
X823462Y647824D02*
G01*
X823462Y997689D01*
D13*
X1677860Y669780D02*
G01*
X1677860Y810780D01*
X1497139Y810780D02*
G01*
X1497139Y669780D01*
X1512379Y654540D02*
G01*
X1662620Y654540D01*
X1677860Y1032019D02*
G01*
X1677860Y891019D01*
X1497139Y891019D02*
G01*
X1497139Y1032019D01*
X1512379Y1047259D02*
G01*
X1662620Y1047259D01*
G75*
G01*
X689120Y862139D02*
G03*
X704360Y877380I0J15240D01*
G75*
G01*
X704360Y1027620D02*
G03*
X689120Y1042860I-15240J0D01*
G75*
G01*
X326880Y862139D02*
G02*
X311640Y877380I0J15240D01*
G75*
G01*
X311640Y1027620D02*
G02*
X326880Y1042860I15240J0D01*
G75*
G01*
X1497140Y669780D02*
G03*
X1512379Y654540I15240J0D01*
G75*
G01*
X1662620Y654540D02*
G03*
X1677860Y669780I0J15240D01*
G75*
G01*
X1497140Y1032020D02*
G02*
X1512379Y1047260I15240J0D01*
G75*
G01*
X1662620Y1047260D02*
G02*
X1677860Y1032020I0J-15240D01*
D14*
G75*
G01
X391008Y740359D02*
G03X391008Y740359I-5004J0D01*
G36*
X172719Y3048000D02*
G01*
X190499Y3048000D01*
X190499Y0D01*
X172719Y0D01*
G37*
G36*
X2044700Y3048000D02*
G01*
X2057400Y3048000D01*
X2057400Y-1473D01*
X2044700Y-1473D01*
G37*
M02*
