G04 Layer: BottomSolderMaskLayer*
G04 EasyEDA v6.5.23, 2023-04-30 22:23:46*
G04 780a14c897c5458fb3efe7b42501c717,664421963ecb4a5db0a4e46f32b0c09c,10*
G04 Gerber Generator version 0.2*
G04 Scale: 100 percent, Rotated: No, Reflected: No *
G04 Dimensions in millimeters *
G04 leading zeros omitted , absolute positions ,4 integer and 5 decimal *
%FSLAX45Y45*%
%MOMM*%

%AMMACRO1*1,1,$1,$2,$3*1,1,$1,$4,$5*1,1,$1,0-$2,0-$3*1,1,$1,0-$4,0-$5*20,1,$1,$2,$3,$4,$5,0*20,1,$1,$4,$5,0-$2,0-$3,0*20,1,$1,0-$2,0-$3,0-$4,0-$5,0*20,1,$1,0-$4,0-$5,$2,$3,0*4,1,4,$2,$3,$4,$5,0-$2,0-$3,0-$4,0-$5,$2,$3,0*%
%ADD10MACRO1,0.1016X-2X0.75X2X0.75*%
%ADD11MACRO1,0.1016X-0.4X0.325X-0.4X-0.325*%
%ADD12MACRO1,0.1016X-0.4X0.25X-0.4X-0.25*%
%ADD13MACRO1,0.1016X-0.5663X0.6885X-0.5663X-0.6885*%
%ADD14MACRO1,0.1016X0.5663X0.6885X0.5663X-0.6885*%
%ADD15MACRO1,0.1016X-0.3X0.535X-0.3X-0.535*%
%ADD16MACRO1,0.1016X-0.6885X-0.5663X0.6885X-0.5663*%
%ADD17MACRO1,0.1016X-0.6885X0.5663X0.6885X0.5663*%
%ADD18C,1.6000*%
%ADD19C,1.6256*%
%ADD20O,7.101586000000001X1.5015972000000002*%

%LPD*%
D10*
G01*
X412800Y130605D03*
G01*
X1803450Y130605D03*
D11*
G01*
X1764202Y978560D03*
G01*
X1944197Y978560D03*
D12*
G01*
X1764202Y1058544D03*
G01*
X1944197Y1058544D03*
G01*
X1764202Y1138554D03*
G01*
X1944197Y1138554D03*
D11*
G01*
X1764202Y1218539D03*
G01*
X1944197Y1218539D03*
D13*
G01*
X1547804Y1714499D03*
D14*
G01*
X1347795Y1714499D03*
D13*
G01*
X1090604Y1714499D03*
D14*
G01*
X890595Y1714499D03*
D13*
G01*
X620704Y1714499D03*
D14*
G01*
X420695Y1714499D03*
D15*
G01*
X653796Y2022800D03*
G01*
X463803Y2022800D03*
G01*
X558799Y2269799D03*
G01*
X1123696Y2022800D03*
G01*
X933703Y2022800D03*
G01*
X1028699Y2269799D03*
G01*
X1593595Y2022800D03*
G01*
X1403603Y2022800D03*
G01*
X1498600Y2269799D03*
D16*
G01*
X1498600Y2665404D03*
D17*
G01*
X1498600Y2465395D03*
D16*
G01*
X1028700Y2665404D03*
D17*
G01*
X1028700Y2465395D03*
D16*
G01*
X558800Y2665404D03*
D17*
G01*
X558800Y2465395D03*
D18*
G01*
X913460Y1047750D03*
G01*
X1113459Y1047750D03*
G01*
X1313459Y1047750D03*
G01*
X1313459Y597763D03*
G01*
X1113459Y597763D03*
G01*
X913460Y597763D03*
D19*
G01*
X520700Y2933700D03*
G01*
X927100Y2933700D03*
G01*
X1333500Y2933700D03*
G01*
X1739900Y2933700D03*
D20*
G01*
X1115060Y203200D03*
M02*
