G04 Layer: BottomLayer*
G04 EasyEDA v6.5.23, 2023-04-30 22:23:46*
G04 780a14c897c5458fb3efe7b42501c717,664421963ecb4a5db0a4e46f32b0c09c,10*
G04 Gerber Generator version 0.2*
G04 Scale: 100 percent, Rotated: No, Reflected: No *
G04 Dimensions in millimeters *
G04 leading zeros omitted , absolute positions ,4 integer and 5 decimal *
%FSLAX45Y45*%
%MOMM*%

%AMMACRO1*21,1,$1,$2,0,0,$3*%
%ADD10C,0.6350*%
%ADD11C,0.2540*%
%ADD12C,0.5080*%
%ADD13R,4.0000X1.5000*%
%ADD14MACRO1,0.65X0.8X-90.0000*%
%ADD15MACRO1,0.5X0.8X-90.0000*%
%ADD16MACRO1,1.377X1.1325X-90.0000*%
%ADD17MACRO1,1.07X0.6X-90.0000*%
%ADD18R,1.3770X1.1325*%
%ADD19MACRO1,1.377X1.1325X0.0000*%
%ADD20C,1.5000*%
%ADD21C,1.5240*%
%ADD22O,6.999986000000001X1.3999972*%
%ADD23C,0.6096*%
%ADD24C,0.0167*%

%LPD*%
G36*
X50139Y38608D02*
G01*
X46278Y39370D01*
X42976Y41605D01*
X40792Y44907D01*
X39979Y48818D01*
X51155Y2999282D01*
X51968Y3003143D01*
X54152Y3006445D01*
X57404Y3008630D01*
X61315Y3009392D01*
X429717Y3009392D01*
X434085Y3008376D01*
X437642Y3005582D01*
X439572Y3001518D01*
X439623Y2996996D01*
X437692Y2992932D01*
X436524Y2991459D01*
X429615Y2979724D01*
X424230Y2967177D01*
X420624Y2954020D01*
X418846Y2940507D01*
X418846Y2926892D01*
X419760Y2920085D01*
X419658Y2916986D01*
X418693Y2914040D01*
X416915Y2911551D01*
X213410Y2708097D01*
X207010Y2700528D01*
X202133Y2692349D01*
X198678Y2683510D01*
X196697Y2674061D01*
X196240Y2666746D01*
X196240Y1048003D01*
X196443Y1043025D01*
X197104Y1038301D01*
X198069Y1033627D01*
X199440Y1029106D01*
X201117Y1024636D01*
X203200Y1020368D01*
X205638Y1016253D01*
X208381Y1012393D01*
X211480Y1008735D01*
X214833Y1005382D01*
X218541Y1002284D01*
X222402Y999540D01*
X226466Y997102D01*
X230784Y995019D01*
X235204Y993292D01*
X239725Y991920D01*
X244449Y990955D01*
X249123Y990346D01*
X254152Y990142D01*
X825753Y990142D01*
X828751Y989685D01*
X831545Y988364D01*
X833729Y986282D01*
X838606Y980084D01*
X848309Y970686D01*
X859129Y962710D01*
X870966Y956259D01*
X883564Y951382D01*
X896670Y948283D01*
X910082Y946912D01*
X923544Y947369D01*
X936802Y949604D01*
X949756Y953617D01*
X961948Y959256D01*
X973277Y966520D01*
X983589Y975207D01*
X995222Y988060D01*
X998118Y989584D01*
X1001318Y990092D01*
X1025804Y990092D01*
X1028852Y989634D01*
X1031544Y988314D01*
X1033830Y986231D01*
X1038656Y980084D01*
X1048308Y970686D01*
X1059180Y962710D01*
X1070965Y956259D01*
X1083614Y951382D01*
X1096670Y948283D01*
X1110081Y946912D01*
X1123543Y947369D01*
X1136853Y949604D01*
X1149705Y953617D01*
X1161897Y959256D01*
X1173276Y966520D01*
X1183589Y975207D01*
X1195171Y988060D01*
X1198067Y989584D01*
X1201318Y990092D01*
X1225804Y990092D01*
X1228801Y989634D01*
X1231595Y988314D01*
X1233779Y986231D01*
X1238656Y980084D01*
X1248308Y970686D01*
X1259179Y962710D01*
X1270965Y956259D01*
X1283563Y951382D01*
X1296670Y948283D01*
X1310081Y946912D01*
X1323543Y947369D01*
X1336852Y949604D01*
X1349756Y953617D01*
X1361897Y959256D01*
X1373327Y966520D01*
X1383588Y975207D01*
X1392631Y985215D01*
X1400251Y996340D01*
X1406347Y1008380D01*
X1410766Y1021080D01*
X1413408Y1034287D01*
X1414322Y1047750D01*
X1413408Y1061212D01*
X1410766Y1074420D01*
X1406347Y1087120D01*
X1400251Y1099159D01*
X1392631Y1110284D01*
X1383588Y1120292D01*
X1373327Y1128979D01*
X1361897Y1136243D01*
X1349756Y1141882D01*
X1336852Y1145895D01*
X1325981Y1147724D01*
X1322019Y1149299D01*
X1319022Y1152398D01*
X1317650Y1156411D01*
X1318006Y1160678D01*
X1320038Y1164437D01*
X1323492Y1166977D01*
X1327658Y1167892D01*
X1384909Y1167892D01*
X1388770Y1167130D01*
X1392072Y1164894D01*
X1605381Y951636D01*
X1611680Y946505D01*
X1618284Y942949D01*
X1625549Y940765D01*
X1633575Y939952D01*
X1692097Y939952D01*
X1695500Y939393D01*
X1698447Y937717D01*
X1700733Y935177D01*
X1703984Y929944D01*
X1708099Y925830D01*
X1712975Y922782D01*
X1718411Y920851D01*
X1724761Y920140D01*
X1803552Y920140D01*
X1807514Y919378D01*
X1810715Y917194D01*
X1812950Y913892D01*
X1813763Y909980D01*
X1813763Y888441D01*
X1812950Y884529D01*
X1810715Y881227D01*
X1788718Y859231D01*
X1785874Y857199D01*
X1782470Y856284D01*
X1774545Y855573D01*
X1765046Y853033D01*
X1756156Y848918D01*
X1748129Y843280D01*
X1741170Y836320D01*
X1735531Y828294D01*
X1731213Y818896D01*
X1729079Y815898D01*
X1725980Y813866D01*
X1722374Y813053D01*
X1718716Y813562D01*
X1715465Y815390D01*
X1710689Y819353D01*
X1703984Y822960D01*
X1696770Y825195D01*
X1688795Y826008D01*
X451307Y826058D01*
X447446Y826820D01*
X444195Y829056D01*
X442620Y830580D01*
X434543Y836218D01*
X425704Y840333D01*
X416153Y842873D01*
X406400Y843737D01*
X396595Y842873D01*
X387096Y840333D01*
X378256Y836218D01*
X370128Y830580D01*
X363220Y823620D01*
X357581Y815594D01*
X353415Y806653D01*
X350926Y797204D01*
X350012Y787400D01*
X350926Y777595D01*
X353415Y768146D01*
X357581Y759206D01*
X363220Y751179D01*
X370128Y744220D01*
X378256Y738581D01*
X387096Y734466D01*
X396595Y731926D01*
X406400Y731062D01*
X416153Y731926D01*
X425704Y734466D01*
X434543Y738581D01*
X442620Y744220D01*
X444246Y745845D01*
X447598Y748080D01*
X451408Y748842D01*
X1640281Y748842D01*
X1644243Y748080D01*
X1647545Y745845D01*
X1649679Y742594D01*
X1650492Y738682D01*
X1650390Y438607D01*
X1649679Y434746D01*
X1647443Y431444D01*
X1645920Y429920D01*
X1640281Y421893D01*
X1636115Y412953D01*
X1633575Y403504D01*
X1632712Y393700D01*
X1633575Y383895D01*
X1636115Y374446D01*
X1640281Y365506D01*
X1645920Y357479D01*
X1652879Y350520D01*
X1660906Y344881D01*
X1669796Y340766D01*
X1679295Y338226D01*
X1689150Y337362D01*
X1698904Y338226D01*
X1708404Y340766D01*
X1717243Y344881D01*
X1725320Y350520D01*
X1732229Y357479D01*
X1737918Y365506D01*
X1742084Y374446D01*
X1744573Y383895D01*
X1745488Y393700D01*
X1744573Y403504D01*
X1742084Y412953D01*
X1737918Y421893D01*
X1732229Y429920D01*
X1730654Y431546D01*
X1728368Y434848D01*
X1727606Y438759D01*
X1727707Y670915D01*
X1728419Y674827D01*
X1730654Y678129D01*
X1733956Y680313D01*
X1737817Y681075D01*
X1824075Y681075D01*
X1832152Y681888D01*
X1839315Y684072D01*
X1846072Y687628D01*
X1852218Y692759D01*
X1971141Y811631D01*
X1976272Y817880D01*
X1979777Y824534D01*
X1981962Y831748D01*
X1982825Y839774D01*
X1982825Y911148D01*
X1983638Y915212D01*
X1986025Y918616D01*
X1989632Y920750D01*
X1995424Y922782D01*
X2000300Y925880D01*
X2004364Y929944D01*
X2007463Y934872D01*
X2009393Y940308D01*
X2010156Y946658D01*
X2010156Y1010513D01*
X2009393Y1016812D01*
X2008682Y1018946D01*
X2008124Y1022299D01*
X2009343Y1027785D01*
X2010156Y1034135D01*
X2010156Y1082954D01*
X2009343Y1089304D01*
X2007311Y1095197D01*
X2006752Y1098550D01*
X2007311Y1101902D01*
X2009343Y1107795D01*
X2010156Y1114145D01*
X2010156Y1162964D01*
X2009343Y1169314D01*
X2008682Y1171448D01*
X2008022Y1174800D01*
X2009343Y1180287D01*
X2010054Y1186637D01*
X2010054Y1250492D01*
X2009343Y1256792D01*
X2007463Y1262278D01*
X2004364Y1267155D01*
X2000300Y1271270D01*
X1995424Y1274318D01*
X1989988Y1276248D01*
X1983638Y1276959D01*
X1904746Y1276959D01*
X1898396Y1276248D01*
X1893011Y1274318D01*
X1888032Y1271270D01*
X1883968Y1267155D01*
X1880870Y1262278D01*
X1878990Y1256792D01*
X1878279Y1250492D01*
X1878279Y1186637D01*
X1878075Y1181506D01*
X1876247Y1177950D01*
X1873199Y1175410D01*
X1869338Y1174242D01*
X1865375Y1174648D01*
X1859838Y1176274D01*
X1851863Y1177086D01*
X1840280Y1177086D01*
X1836369Y1177848D01*
X1833067Y1180084D01*
X1830882Y1183335D01*
X1830070Y1187246D01*
X1830070Y1250442D01*
X1829409Y1256792D01*
X1827479Y1262227D01*
X1824431Y1267155D01*
X1820265Y1271219D01*
X1815388Y1274318D01*
X1809902Y1276248D01*
X1803654Y1276959D01*
X1724761Y1276959D01*
X1718411Y1276248D01*
X1712975Y1274318D01*
X1708099Y1271219D01*
X1703984Y1267155D01*
X1700733Y1261922D01*
X1698447Y1259382D01*
X1695399Y1257706D01*
X1692097Y1257147D01*
X1633728Y1257147D01*
X1629867Y1257909D01*
X1626565Y1260144D01*
X1392631Y1494078D01*
X1390599Y1496974D01*
X1389684Y1500378D01*
X1388973Y1508404D01*
X1386484Y1517853D01*
X1382318Y1526794D01*
X1376629Y1534820D01*
X1369720Y1541780D01*
X1361643Y1547418D01*
X1352804Y1551533D01*
X1343304Y1554073D01*
X1333550Y1554937D01*
X1323695Y1554073D01*
X1314196Y1551533D01*
X1305306Y1547418D01*
X1297279Y1541780D01*
X1290320Y1534820D01*
X1287373Y1532128D01*
X1283563Y1530756D01*
X1279601Y1530959D01*
X1276045Y1532686D01*
X1273352Y1535684D01*
X1272082Y1539443D01*
X1272336Y1543456D01*
X1274673Y1552295D01*
X1275588Y1562100D01*
X1274673Y1571904D01*
X1272184Y1581353D01*
X1268018Y1590294D01*
X1262329Y1598320D01*
X1255420Y1605280D01*
X1247343Y1610918D01*
X1238504Y1615033D01*
X1229004Y1617573D01*
X1220927Y1618284D01*
X1217523Y1619199D01*
X1214628Y1621231D01*
X1176070Y1659788D01*
X1173937Y1663090D01*
X1173124Y1666951D01*
X1173124Y1782775D01*
X1172464Y1789125D01*
X1170533Y1794560D01*
X1167434Y1799488D01*
X1165250Y1801622D01*
X1163066Y1804924D01*
X1162304Y1808784D01*
X1162304Y1938782D01*
X1162862Y1942134D01*
X1164488Y1945132D01*
X1167079Y1947367D01*
X1169771Y1949094D01*
X1173937Y1953209D01*
X1176985Y1958086D01*
X1178915Y1963572D01*
X1179576Y1969871D01*
X1179576Y2075738D01*
X1178915Y2082088D01*
X1176985Y2087524D01*
X1173937Y2092401D01*
X1169771Y2096516D01*
X1164894Y2099614D01*
X1159408Y2101494D01*
X1153109Y2102205D01*
X1094232Y2102205D01*
X1087983Y2101494D01*
X1082446Y2099614D01*
X1077569Y2096516D01*
X1073454Y2092401D01*
X1070457Y2087524D01*
X1068527Y2082088D01*
X1067765Y2075738D01*
X1067765Y1969871D01*
X1068527Y1963572D01*
X1070457Y1958086D01*
X1073454Y1953209D01*
X1077569Y1949094D01*
X1080312Y1947367D01*
X1082852Y1945132D01*
X1084529Y1942134D01*
X1085138Y1938782D01*
X1085138Y1819402D01*
X1084275Y1815541D01*
X1082141Y1812239D01*
X1078788Y1810054D01*
X1074928Y1809242D01*
X1034542Y1809242D01*
X1028192Y1808530D01*
X1022756Y1806651D01*
X1017828Y1803552D01*
X1013815Y1799488D01*
X1010666Y1794560D01*
X1008735Y1789125D01*
X1008024Y1782775D01*
X1008024Y1646224D01*
X1008735Y1639874D01*
X1010666Y1634439D01*
X1013815Y1629511D01*
X1017828Y1625447D01*
X1022756Y1622348D01*
X1028192Y1620469D01*
X1034542Y1619758D01*
X1102715Y1619758D01*
X1106627Y1618945D01*
X1109980Y1616760D01*
X1160018Y1566621D01*
X1162050Y1563725D01*
X1162964Y1560322D01*
X1163726Y1552295D01*
X1166215Y1542846D01*
X1170381Y1533906D01*
X1176020Y1525879D01*
X1182928Y1518920D01*
X1191056Y1513281D01*
X1199896Y1509166D01*
X1209395Y1506626D01*
X1219250Y1505762D01*
X1229004Y1506626D01*
X1238504Y1509166D01*
X1247343Y1513281D01*
X1255420Y1518920D01*
X1262329Y1525879D01*
X1265275Y1528572D01*
X1269136Y1529943D01*
X1273098Y1529740D01*
X1276654Y1528013D01*
X1279347Y1525016D01*
X1280617Y1521256D01*
X1280363Y1517243D01*
X1277975Y1508404D01*
X1277112Y1498600D01*
X1277975Y1488795D01*
X1280515Y1479346D01*
X1284681Y1470406D01*
X1290320Y1462379D01*
X1297279Y1455420D01*
X1305306Y1449781D01*
X1314196Y1445666D01*
X1323695Y1443126D01*
X1331722Y1442415D01*
X1335125Y1441500D01*
X1338072Y1439468D01*
X1407058Y1370380D01*
X1409293Y1367129D01*
X1410106Y1363218D01*
X1409293Y1359306D01*
X1407058Y1356055D01*
X1403756Y1353820D01*
X1399895Y1353058D01*
X674268Y1353058D01*
X670407Y1353820D01*
X667054Y1356055D01*
X452831Y1570278D01*
X450799Y1573174D01*
X449884Y1576578D01*
X449173Y1584604D01*
X446684Y1594053D01*
X439978Y1608124D01*
X429920Y1617980D01*
X421843Y1623618D01*
X413004Y1627733D01*
X403453Y1630273D01*
X395325Y1630984D01*
X391668Y1632000D01*
X388670Y1634286D01*
X386689Y1637436D01*
X386080Y1641144D01*
X386080Y1673707D01*
X338175Y1673707D01*
X338175Y1646224D01*
X338836Y1639874D01*
X340766Y1634439D01*
X343814Y1629511D01*
X350774Y1622602D01*
X352348Y1618843D01*
X352196Y1614830D01*
X350621Y1611172D01*
X344881Y1602994D01*
X340715Y1594053D01*
X338226Y1584604D01*
X337312Y1574800D01*
X338226Y1564995D01*
X340715Y1555546D01*
X344881Y1546606D01*
X350520Y1538579D01*
X357428Y1531620D01*
X365556Y1525981D01*
X374396Y1521866D01*
X383895Y1519326D01*
X391972Y1518615D01*
X395376Y1517700D01*
X398272Y1515668D01*
X626414Y1287526D01*
X632612Y1282395D01*
X639267Y1278839D01*
X646480Y1276654D01*
X654507Y1275842D01*
X1383131Y1275842D01*
X1386992Y1275080D01*
X1390345Y1272844D01*
X1400708Y1262430D01*
X1402943Y1259179D01*
X1403756Y1255268D01*
X1402943Y1251356D01*
X1400708Y1248105D01*
X1397406Y1245870D01*
X1393545Y1245108D01*
X641858Y1245108D01*
X637997Y1245870D01*
X634746Y1248105D01*
X633120Y1249680D01*
X625043Y1255318D01*
X616204Y1259433D01*
X606653Y1261973D01*
X596900Y1262837D01*
X587095Y1261973D01*
X577596Y1259433D01*
X568756Y1255318D01*
X560628Y1249680D01*
X553720Y1242720D01*
X548081Y1234694D01*
X543915Y1225753D01*
X541426Y1216304D01*
X540512Y1206500D01*
X541426Y1196695D01*
X543915Y1187246D01*
X548081Y1178306D01*
X553720Y1170279D01*
X560628Y1163320D01*
X568756Y1157681D01*
X577596Y1153566D01*
X587095Y1151026D01*
X596900Y1150162D01*
X606653Y1151026D01*
X616204Y1153566D01*
X625043Y1157681D01*
X633120Y1163320D01*
X634746Y1164894D01*
X637997Y1167130D01*
X641858Y1167892D01*
X899566Y1167892D01*
X903884Y1166926D01*
X907338Y1164285D01*
X909370Y1160424D01*
X909574Y1156055D01*
X907897Y1151991D01*
X904798Y1148994D01*
X900582Y1147622D01*
X896670Y1147216D01*
X883564Y1144117D01*
X870966Y1139240D01*
X859129Y1132789D01*
X848309Y1124813D01*
X838606Y1115415D01*
X833780Y1109319D01*
X831596Y1107236D01*
X828852Y1105916D01*
X825804Y1105458D01*
X321716Y1105458D01*
X317804Y1106220D01*
X314553Y1108456D01*
X312369Y1111707D01*
X311556Y1115618D01*
X311556Y2638958D01*
X312369Y2642870D01*
X314553Y2646121D01*
X498246Y2829814D01*
X502005Y2832201D01*
X506425Y2832760D01*
X517245Y2831693D01*
X530910Y2832150D01*
X544372Y2834386D01*
X557377Y2838450D01*
X569772Y2844190D01*
X581253Y2851505D01*
X591718Y2860294D01*
X600811Y2870454D01*
X608533Y2881680D01*
X614730Y2893822D01*
X619150Y2906725D01*
X621842Y2920085D01*
X622757Y2933700D01*
X621842Y2947314D01*
X619150Y2960674D01*
X614730Y2973578D01*
X608533Y2985719D01*
X603199Y2993491D01*
X601522Y2997555D01*
X601776Y3001924D01*
X603808Y3005785D01*
X607314Y3008477D01*
X611530Y3009392D01*
X836117Y3009392D01*
X840384Y3008477D01*
X843889Y3005785D01*
X845921Y3001924D01*
X846175Y2997555D01*
X844448Y2993491D01*
X841654Y2989376D01*
X839419Y2987040D01*
X836523Y2985516D01*
X833272Y2985008D01*
X822604Y2984804D01*
X818184Y2984195D01*
X813816Y2983230D01*
X809599Y2981909D01*
X805383Y2980182D01*
X801420Y2978099D01*
X797661Y2975711D01*
X794105Y2973019D01*
X790651Y2969818D01*
X571754Y2750921D01*
X568452Y2748737D01*
X564540Y2747924D01*
X490474Y2747924D01*
X484225Y2747213D01*
X478688Y2745333D01*
X473811Y2742234D01*
X469696Y2738120D01*
X466699Y2733243D01*
X464769Y2727807D01*
X464007Y2721457D01*
X464007Y2609342D01*
X464769Y2603042D01*
X466699Y2597556D01*
X469696Y2592679D01*
X473811Y2588564D01*
X478688Y2585516D01*
X484225Y2583586D01*
X490474Y2582875D01*
X627075Y2582875D01*
X633374Y2583586D01*
X638860Y2585516D01*
X643737Y2588564D01*
X647903Y2592679D01*
X650900Y2597556D01*
X652830Y2603042D01*
X653542Y2609342D01*
X653542Y2683408D01*
X654304Y2687269D01*
X656488Y2690571D01*
X834440Y2868422D01*
X837946Y2870758D01*
X842162Y2871368D01*
X846277Y2870250D01*
X849579Y2867558D01*
X851357Y2865221D01*
X861161Y2855722D01*
X872134Y2847644D01*
X884123Y2841091D01*
X896823Y2836214D01*
X910082Y2833014D01*
X923645Y2831693D01*
X937310Y2832150D01*
X950772Y2834386D01*
X963777Y2838450D01*
X976172Y2844190D01*
X987653Y2851505D01*
X998118Y2860294D01*
X1007211Y2870454D01*
X1014933Y2881680D01*
X1021130Y2893822D01*
X1025550Y2906725D01*
X1028242Y2920085D01*
X1029157Y2933700D01*
X1028242Y2947314D01*
X1025550Y2960674D01*
X1021130Y2973578D01*
X1014933Y2985719D01*
X1009548Y2993491D01*
X1007922Y2997555D01*
X1008126Y3001924D01*
X1010208Y3005836D01*
X1013714Y3008477D01*
X1017930Y3009392D01*
X1242517Y3009442D01*
X1246936Y3008426D01*
X1250442Y3005632D01*
X1252474Y3001568D01*
X1252474Y2997047D01*
X1250543Y2992983D01*
X1249324Y2991459D01*
X1242364Y2979724D01*
X1237030Y2967177D01*
X1233424Y2954020D01*
X1232154Y2944368D01*
X1231188Y2941218D01*
X1229258Y2938526D01*
X1041653Y2750921D01*
X1038352Y2748737D01*
X1034440Y2747924D01*
X960374Y2747924D01*
X954125Y2747213D01*
X948588Y2745333D01*
X943711Y2742234D01*
X939596Y2738120D01*
X936599Y2733243D01*
X934669Y2727807D01*
X933907Y2721457D01*
X933907Y2609342D01*
X934669Y2603042D01*
X936599Y2597556D01*
X939596Y2592679D01*
X943711Y2588564D01*
X948588Y2585516D01*
X954125Y2583586D01*
X960374Y2582875D01*
X1096975Y2582875D01*
X1103274Y2583586D01*
X1108760Y2585516D01*
X1113637Y2588564D01*
X1117803Y2592679D01*
X1120800Y2597556D01*
X1122730Y2603042D01*
X1123442Y2609342D01*
X1123442Y2683408D01*
X1124204Y2687269D01*
X1126388Y2690571D01*
X1276400Y2840532D01*
X1280007Y2842869D01*
X1284325Y2843479D01*
X1288440Y2842260D01*
X1290574Y2841091D01*
X1303274Y2836214D01*
X1316532Y2833014D01*
X1330045Y2831693D01*
X1343761Y2832150D01*
X1357122Y2834386D01*
X1370177Y2838450D01*
X1382522Y2844190D01*
X1394104Y2851505D01*
X1404518Y2860294D01*
X1413611Y2870454D01*
X1421333Y2881680D01*
X1427530Y2893822D01*
X1431950Y2906725D01*
X1434693Y2920085D01*
X1435608Y2933700D01*
X1434693Y2947314D01*
X1431950Y2960674D01*
X1427530Y2973578D01*
X1421333Y2985719D01*
X1415999Y2993491D01*
X1414322Y2997555D01*
X1414526Y3001924D01*
X1416558Y3005836D01*
X1420063Y3008477D01*
X1424381Y3009442D01*
X1648917Y3009442D01*
X1653336Y3008426D01*
X1656842Y3005632D01*
X1658874Y3001568D01*
X1658874Y2997047D01*
X1656943Y2992983D01*
X1655724Y2991459D01*
X1648764Y2979724D01*
X1643430Y2967177D01*
X1639824Y2954020D01*
X1637995Y2940507D01*
X1637995Y2926892D01*
X1639824Y2913380D01*
X1643430Y2900222D01*
X1645920Y2894330D01*
X1646732Y2890418D01*
X1645970Y2886456D01*
X1643786Y2883154D01*
X1511554Y2750921D01*
X1508302Y2748737D01*
X1504340Y2747924D01*
X1430274Y2747924D01*
X1424025Y2747213D01*
X1418488Y2745333D01*
X1413611Y2742234D01*
X1409496Y2738120D01*
X1406448Y2733243D01*
X1404518Y2727807D01*
X1403858Y2721457D01*
X1403858Y2609342D01*
X1404518Y2603042D01*
X1406448Y2597556D01*
X1409496Y2592679D01*
X1413611Y2588564D01*
X1418488Y2585516D01*
X1424025Y2583586D01*
X1430274Y2582875D01*
X1566926Y2582875D01*
X1573174Y2583586D01*
X1578711Y2585516D01*
X1583588Y2588564D01*
X1587652Y2592679D01*
X1590700Y2597556D01*
X1592630Y2603042D01*
X1593342Y2609342D01*
X1593342Y2683408D01*
X1594104Y2687269D01*
X1596288Y2690571D01*
X1734616Y2828848D01*
X1737766Y2830982D01*
X1741424Y2831846D01*
X1750161Y2832150D01*
X1763522Y2834386D01*
X1776577Y2838450D01*
X1788922Y2844190D01*
X1800504Y2851505D01*
X1810918Y2860294D01*
X1820011Y2870454D01*
X1827733Y2881680D01*
X1833930Y2893822D01*
X1838350Y2906725D01*
X1841093Y2920085D01*
X1842007Y2933700D01*
X1841093Y2947314D01*
X1838350Y2960674D01*
X1833930Y2973578D01*
X1827733Y2985719D01*
X1822399Y2993542D01*
X1820773Y2997606D01*
X1820925Y3001975D01*
X1822957Y3005836D01*
X1826463Y3008477D01*
X1830781Y3009442D01*
X2177440Y3009442D01*
X2181402Y3008680D01*
X2184654Y3006445D01*
X2186838Y3003194D01*
X2187600Y2999282D01*
X2187600Y2600960D01*
X2186838Y2597048D01*
X2184654Y2593797D01*
X2181402Y2591562D01*
X2177440Y2590800D01*
X1676450Y2590800D01*
X1676450Y1403350D01*
X2177440Y1403350D01*
X2181402Y1402588D01*
X2184654Y1400352D01*
X2186838Y1397101D01*
X2187600Y1393190D01*
X2187600Y48768D01*
X2186838Y44856D01*
X2184654Y41605D01*
X2181402Y39370D01*
X2177440Y38608D01*
X2038756Y38608D01*
X2034641Y39471D01*
X2031136Y42011D01*
X2029104Y45669D01*
X2028647Y49885D01*
X2029358Y56184D01*
X2029358Y86766D01*
X1909825Y86766D01*
X1909825Y48768D01*
X1909013Y44856D01*
X1906778Y41605D01*
X1903577Y39370D01*
X1899615Y38608D01*
X1707286Y38608D01*
X1703324Y39370D01*
X1700123Y41605D01*
X1697888Y44856D01*
X1697075Y48768D01*
X1697075Y86766D01*
X1577543Y86766D01*
X1577543Y56184D01*
X1578254Y49885D01*
X1577797Y45669D01*
X1575765Y42011D01*
X1572260Y39471D01*
X1568145Y38608D01*
X648055Y38608D01*
X643991Y39471D01*
X640537Y42011D01*
X638403Y45669D01*
X637997Y49885D01*
X638708Y56184D01*
X638708Y135382D01*
X639470Y139293D01*
X641654Y142544D01*
X645007Y144780D01*
X648919Y145542D01*
X753770Y145542D01*
X758139Y144576D01*
X761746Y141782D01*
X764946Y137769D01*
X774547Y128828D01*
X785215Y121259D01*
X796899Y115265D01*
X809193Y110896D01*
X821994Y108204D01*
X835456Y107289D01*
X1394764Y107289D01*
X1408074Y108204D01*
X1420977Y110896D01*
X1433220Y115265D01*
X1444904Y121259D01*
X1455572Y128828D01*
X1465122Y137769D01*
X1473352Y147929D01*
X1480159Y159105D01*
X1485392Y171094D01*
X1488897Y183692D01*
X1489913Y190652D01*
X1491996Y197408D01*
X1492758Y203708D01*
X1492758Y444144D01*
X1492046Y450189D01*
X1490167Y455676D01*
X1487068Y460603D01*
X1484934Y462991D01*
X1405890Y541985D01*
X1403604Y545541D01*
X1402943Y549656D01*
X1403959Y553770D01*
X1406347Y558393D01*
X1410766Y571093D01*
X1413408Y584301D01*
X1414322Y597763D01*
X1413408Y611225D01*
X1410766Y624433D01*
X1406347Y637133D01*
X1400251Y649173D01*
X1392631Y660298D01*
X1383588Y670306D01*
X1373327Y678992D01*
X1361897Y686257D01*
X1349756Y691896D01*
X1336852Y695909D01*
X1323543Y698144D01*
X1310081Y698601D01*
X1296670Y697230D01*
X1283563Y694131D01*
X1270965Y689254D01*
X1259179Y682802D01*
X1248308Y674827D01*
X1238656Y665429D01*
X1233779Y659282D01*
X1231595Y657199D01*
X1228801Y655878D01*
X1225804Y655421D01*
X1201318Y655421D01*
X1198067Y655929D01*
X1195171Y657453D01*
X1183589Y670306D01*
X1173276Y678992D01*
X1161897Y686257D01*
X1149705Y691896D01*
X1136853Y695909D01*
X1123543Y698144D01*
X1110081Y698601D01*
X1096670Y697230D01*
X1083614Y694131D01*
X1070965Y689254D01*
X1059180Y682802D01*
X1048308Y674827D01*
X1038656Y665429D01*
X1033830Y659282D01*
X1031544Y657199D01*
X1028852Y655878D01*
X1025804Y655421D01*
X1001318Y655421D01*
X998118Y655929D01*
X995222Y657453D01*
X983589Y670306D01*
X973277Y678992D01*
X961948Y686257D01*
X949756Y691896D01*
X936802Y695909D01*
X923544Y698144D01*
X910082Y698601D01*
X896670Y697230D01*
X883564Y694131D01*
X870966Y689254D01*
X859129Y682802D01*
X848309Y674827D01*
X838606Y665429D01*
X830275Y654862D01*
X823417Y643280D01*
X818134Y630834D01*
X814578Y617880D01*
X812800Y604520D01*
X812800Y591007D01*
X814578Y577646D01*
X818134Y564692D01*
X823061Y553008D01*
X823874Y549097D01*
X823112Y545134D01*
X820928Y541832D01*
X743864Y464769D01*
X740054Y460044D01*
X737514Y454812D01*
X736295Y449173D01*
X736092Y445973D01*
X736092Y271018D01*
X735330Y267106D01*
X733094Y263855D01*
X729792Y261620D01*
X725932Y260858D01*
X485800Y260858D01*
X475945Y260045D01*
X466699Y257708D01*
X457962Y253898D01*
X449884Y248615D01*
X444398Y243738D01*
X435101Y234492D01*
X431800Y232308D01*
X427939Y231495D01*
X213360Y231495D01*
X207010Y230784D01*
X201574Y228904D01*
X196646Y225806D01*
X192633Y221742D01*
X189484Y216814D01*
X187604Y211378D01*
X186893Y205028D01*
X186893Y56184D01*
X187553Y49885D01*
X187147Y45669D01*
X185064Y42011D01*
X181610Y39471D01*
X177546Y38608D01*
G37*

%LPC*%
G36*
X1577543Y174447D02*
G01*
X1697075Y174447D01*
X1697075Y231495D01*
X1604010Y231495D01*
X1597660Y230784D01*
X1592224Y228904D01*
X1587296Y225806D01*
X1583232Y221742D01*
X1580184Y216814D01*
X1578254Y211378D01*
X1577543Y205028D01*
G37*
G36*
X1909825Y174447D02*
G01*
X2029358Y174447D01*
X2029358Y205028D01*
X2028647Y211378D01*
X2026716Y216814D01*
X2023668Y221742D01*
X2019554Y225806D01*
X2014677Y228904D01*
X2009241Y230784D01*
X2002891Y231495D01*
X1909825Y231495D01*
G37*
G36*
X1460550Y1505762D02*
G01*
X1470304Y1506626D01*
X1479804Y1509166D01*
X1488643Y1513281D01*
X1496720Y1518920D01*
X1503629Y1525879D01*
X1509318Y1533906D01*
X1513484Y1542846D01*
X1515973Y1552295D01*
X1516888Y1562100D01*
X1515973Y1571904D01*
X1513484Y1581353D01*
X1509318Y1590294D01*
X1503629Y1598320D01*
X1502156Y1599844D01*
X1499920Y1603146D01*
X1499108Y1607058D01*
X1499920Y1610918D01*
X1502156Y1614220D01*
X1504645Y1616760D01*
X1507947Y1618945D01*
X1511808Y1619758D01*
X1603857Y1619758D01*
X1610207Y1620469D01*
X1615643Y1622348D01*
X1620520Y1625447D01*
X1624634Y1629511D01*
X1627682Y1634439D01*
X1629613Y1639874D01*
X1630324Y1646224D01*
X1630324Y1747723D01*
X1631442Y1752752D01*
X1632204Y1760778D01*
X1632204Y1938782D01*
X1632762Y1942134D01*
X1634388Y1945132D01*
X1636979Y1947367D01*
X1639722Y1949094D01*
X1643786Y1953209D01*
X1646885Y1958086D01*
X1648764Y1963572D01*
X1649475Y1969871D01*
X1649475Y2075738D01*
X1648764Y2082088D01*
X1646885Y2087524D01*
X1643786Y2092401D01*
X1639722Y2096516D01*
X1634845Y2099614D01*
X1629308Y2101494D01*
X1623060Y2102205D01*
X1564182Y2102205D01*
X1557832Y2101494D01*
X1552397Y2099614D01*
X1547520Y2096516D01*
X1543354Y2092401D01*
X1540357Y2087524D01*
X1538427Y2082088D01*
X1537665Y2075738D01*
X1537665Y1969871D01*
X1538427Y1963572D01*
X1540357Y1958086D01*
X1543354Y1953209D01*
X1547520Y1949094D01*
X1550212Y1947367D01*
X1552752Y1945132D01*
X1554429Y1942134D01*
X1554988Y1938782D01*
X1554988Y1819402D01*
X1554226Y1815541D01*
X1552041Y1812239D01*
X1548688Y1810054D01*
X1544828Y1809242D01*
X1491742Y1809242D01*
X1485392Y1808530D01*
X1479956Y1806651D01*
X1475079Y1803552D01*
X1470964Y1799488D01*
X1467916Y1794560D01*
X1465986Y1789125D01*
X1465224Y1782775D01*
X1465224Y1690776D01*
X1464513Y1686864D01*
X1462278Y1683613D01*
X1447647Y1668983D01*
X1444091Y1666646D01*
X1439926Y1666036D01*
X1435811Y1667154D01*
X1432458Y1669897D01*
X1430629Y1673707D01*
X1382420Y1673707D01*
X1382420Y1619758D01*
X1403858Y1619758D01*
X1410563Y1620520D01*
X1414830Y1620062D01*
X1418488Y1617980D01*
X1420977Y1614576D01*
X1421892Y1610410D01*
X1421892Y1607108D01*
X1421079Y1603197D01*
X1418945Y1599895D01*
X1417320Y1598320D01*
X1411681Y1590294D01*
X1407515Y1581353D01*
X1404975Y1571904D01*
X1404112Y1562100D01*
X1404975Y1552295D01*
X1407515Y1542846D01*
X1411681Y1533906D01*
X1417320Y1525879D01*
X1424279Y1518920D01*
X1432306Y1513281D01*
X1441196Y1509166D01*
X1450695Y1506626D01*
G37*
G36*
X762000Y1505762D02*
G01*
X771753Y1506626D01*
X781304Y1509166D01*
X790143Y1513281D01*
X798220Y1518920D01*
X805180Y1525879D01*
X810768Y1533906D01*
X814984Y1542846D01*
X817473Y1552295D01*
X818388Y1562100D01*
X817473Y1571904D01*
X814984Y1581353D01*
X810768Y1590294D01*
X805180Y1598320D01*
X798220Y1605280D01*
X790143Y1610918D01*
X781304Y1615033D01*
X774954Y1616710D01*
X772515Y1617726D01*
X770382Y1619351D01*
X706170Y1683562D01*
X704037Y1686864D01*
X703224Y1690776D01*
X703224Y1782775D01*
X702564Y1789125D01*
X700633Y1794560D01*
X697534Y1799488D01*
X695350Y1801622D01*
X693166Y1804924D01*
X692404Y1808784D01*
X692404Y1938782D01*
X692962Y1942134D01*
X694588Y1945132D01*
X697179Y1947367D01*
X699871Y1949094D01*
X704037Y1953209D01*
X707085Y1958086D01*
X709015Y1963572D01*
X709676Y1969871D01*
X709676Y2075738D01*
X709015Y2082088D01*
X707085Y2087524D01*
X704037Y2092401D01*
X699871Y2096516D01*
X694994Y2099614D01*
X689508Y2101494D01*
X683209Y2102205D01*
X624332Y2102205D01*
X618083Y2101494D01*
X612546Y2099614D01*
X607669Y2096516D01*
X603554Y2092401D01*
X600557Y2087524D01*
X598627Y2082088D01*
X597865Y2075738D01*
X597865Y1969871D01*
X598627Y1963572D01*
X600557Y1958086D01*
X603554Y1953209D01*
X607669Y1949094D01*
X610412Y1947367D01*
X612952Y1945132D01*
X614629Y1942134D01*
X615238Y1938782D01*
X615238Y1819402D01*
X614375Y1815541D01*
X612241Y1812239D01*
X608888Y1810054D01*
X605028Y1809242D01*
X564642Y1809242D01*
X558292Y1808530D01*
X552856Y1806651D01*
X547928Y1803552D01*
X543915Y1799488D01*
X540766Y1794560D01*
X538835Y1789125D01*
X538124Y1782775D01*
X538124Y1646224D01*
X538835Y1639874D01*
X540766Y1634439D01*
X543915Y1629511D01*
X547928Y1625447D01*
X552856Y1622348D01*
X558292Y1620469D01*
X564642Y1619758D01*
X656691Y1619758D01*
X660552Y1618945D01*
X663803Y1616760D01*
X703326Y1577238D01*
X705662Y1573530D01*
X706221Y1569212D01*
X705612Y1562100D01*
X706526Y1552295D01*
X709015Y1542846D01*
X713181Y1533906D01*
X718820Y1525879D01*
X725728Y1518920D01*
X733856Y1513281D01*
X742696Y1509166D01*
X752195Y1506626D01*
G37*
G36*
X455320Y1619758D02*
G01*
X476707Y1619758D01*
X483057Y1620469D01*
X488492Y1622348D01*
X493420Y1625447D01*
X497484Y1629511D01*
X500583Y1634439D01*
X502513Y1639874D01*
X503275Y1646224D01*
X503275Y1673707D01*
X455320Y1673707D01*
G37*
G36*
X925220Y1619758D02*
G01*
X946607Y1619758D01*
X952957Y1620469D01*
X958392Y1622348D01*
X963320Y1625447D01*
X967384Y1629511D01*
X970483Y1634439D01*
X972413Y1639874D01*
X973175Y1646224D01*
X973175Y1673707D01*
X925220Y1673707D01*
G37*
G36*
X834542Y1619758D02*
G01*
X855980Y1619758D01*
X855980Y1673707D01*
X808075Y1673707D01*
X808075Y1646224D01*
X808736Y1639874D01*
X810666Y1634439D01*
X813714Y1629511D01*
X817880Y1625447D01*
X822756Y1622348D01*
X828192Y1620469D01*
G37*
G36*
X1291691Y1619758D02*
G01*
X1313129Y1619758D01*
X1313129Y1673707D01*
X1265275Y1673707D01*
X1265275Y1646224D01*
X1265986Y1639874D01*
X1267866Y1634439D01*
X1270965Y1629511D01*
X1275029Y1625447D01*
X1279906Y1622348D01*
X1285392Y1620469D01*
G37*
G36*
X808075Y1755292D02*
G01*
X855980Y1755292D01*
X855980Y1809242D01*
X834542Y1809242D01*
X828192Y1808530D01*
X822756Y1806651D01*
X817880Y1803552D01*
X813714Y1799488D01*
X810666Y1794560D01*
X808736Y1789125D01*
X808075Y1782775D01*
G37*
G36*
X338175Y1755292D02*
G01*
X386080Y1755292D01*
X386080Y1809242D01*
X364642Y1809242D01*
X358292Y1808530D01*
X352856Y1806651D01*
X347980Y1803552D01*
X343814Y1799488D01*
X340766Y1794560D01*
X338836Y1789125D01*
X338175Y1782775D01*
G37*
G36*
X925220Y1755292D02*
G01*
X973175Y1755292D01*
X973175Y1782775D01*
X972413Y1789125D01*
X970483Y1794560D01*
X967384Y1799488D01*
X963320Y1803552D01*
X958392Y1806651D01*
X952957Y1808530D01*
X946607Y1809242D01*
X925220Y1809242D01*
G37*
G36*
X455320Y1755292D02*
G01*
X503275Y1755292D01*
X503275Y1782775D01*
X502513Y1789125D01*
X500583Y1794560D01*
X497484Y1799488D01*
X493420Y1803552D01*
X488492Y1806651D01*
X483057Y1808530D01*
X476707Y1809242D01*
X455320Y1809242D01*
G37*
G36*
X1382420Y1755292D02*
G01*
X1430375Y1755292D01*
X1430375Y1782775D01*
X1429613Y1789125D01*
X1427683Y1794560D01*
X1424584Y1799488D01*
X1420520Y1803552D01*
X1415643Y1806651D01*
X1410208Y1808530D01*
X1403858Y1809242D01*
X1382420Y1809242D01*
G37*
G36*
X1265275Y1755292D02*
G01*
X1313129Y1755292D01*
X1313129Y1809242D01*
X1291691Y1809242D01*
X1285392Y1808530D01*
X1279906Y1806651D01*
X1275029Y1803552D01*
X1270965Y1799488D01*
X1267866Y1794560D01*
X1265986Y1789125D01*
X1265275Y1782775D01*
G37*
G36*
X434390Y1943404D02*
G01*
X442417Y1943404D01*
X442417Y1989734D01*
X407873Y1989734D01*
X407873Y1969871D01*
X408584Y1963572D01*
X410514Y1958086D01*
X413562Y1953209D01*
X417677Y1949094D01*
X422554Y1946046D01*
X428091Y1944116D01*
G37*
G36*
X955090Y1943404D02*
G01*
X963117Y1943404D01*
X969416Y1944116D01*
X974902Y1946046D01*
X979779Y1949094D01*
X983945Y1953209D01*
X986942Y1958086D01*
X988872Y1963572D01*
X989584Y1969871D01*
X989584Y1989734D01*
X955090Y1989734D01*
G37*
G36*
X485190Y1943404D02*
G01*
X493217Y1943404D01*
X499516Y1944116D01*
X505002Y1946046D01*
X509879Y1949094D01*
X514045Y1953209D01*
X517042Y1958086D01*
X518972Y1963572D01*
X519684Y1969871D01*
X519684Y1989734D01*
X485190Y1989734D01*
G37*
G36*
X904290Y1943404D02*
G01*
X912317Y1943404D01*
X912317Y1989734D01*
X877773Y1989734D01*
X877773Y1969871D01*
X878484Y1963572D01*
X880414Y1958086D01*
X883462Y1953209D01*
X887577Y1949094D01*
X892454Y1946046D01*
X897991Y1944116D01*
G37*
G36*
X1374140Y1943404D02*
G01*
X1382217Y1943404D01*
X1382217Y1989734D01*
X1347724Y1989734D01*
X1347724Y1969871D01*
X1348384Y1963572D01*
X1350314Y1958086D01*
X1353362Y1953209D01*
X1357477Y1949094D01*
X1362354Y1946046D01*
X1367891Y1944116D01*
G37*
G36*
X1424940Y1943404D02*
G01*
X1433017Y1943404D01*
X1439316Y1944116D01*
X1444802Y1946046D01*
X1449679Y1949094D01*
X1453845Y1953209D01*
X1456842Y1958086D01*
X1458772Y1963572D01*
X1459534Y1969871D01*
X1459534Y1989734D01*
X1424940Y1989734D01*
G37*
G36*
X955090Y2055926D02*
G01*
X989584Y2055926D01*
X989584Y2075738D01*
X988872Y2082088D01*
X986942Y2087524D01*
X983945Y2092401D01*
X979779Y2096516D01*
X974902Y2099614D01*
X969416Y2101494D01*
X963117Y2102205D01*
X955090Y2102205D01*
G37*
G36*
X407873Y2055926D02*
G01*
X442417Y2055926D01*
X442417Y2102205D01*
X434390Y2102205D01*
X428091Y2101494D01*
X422554Y2099614D01*
X417677Y2096516D01*
X413562Y2092401D01*
X410514Y2087524D01*
X408584Y2082088D01*
X407873Y2075738D01*
G37*
G36*
X485190Y2055926D02*
G01*
X519684Y2055926D01*
X519684Y2075738D01*
X518972Y2082088D01*
X517042Y2087524D01*
X514045Y2092401D01*
X509879Y2096516D01*
X505002Y2099614D01*
X499516Y2101494D01*
X493217Y2102205D01*
X485190Y2102205D01*
G37*
G36*
X877773Y2055926D02*
G01*
X912317Y2055926D01*
X912317Y2102205D01*
X904290Y2102205D01*
X897991Y2101494D01*
X892454Y2099614D01*
X887577Y2096516D01*
X883462Y2092401D01*
X880414Y2087524D01*
X878484Y2082088D01*
X877773Y2075738D01*
G37*
G36*
X1424940Y2055926D02*
G01*
X1459534Y2055926D01*
X1459534Y2075738D01*
X1458772Y2082088D01*
X1456842Y2087524D01*
X1453845Y2092401D01*
X1449679Y2096516D01*
X1444802Y2099614D01*
X1439316Y2101494D01*
X1433017Y2102205D01*
X1424940Y2102205D01*
G37*
G36*
X1347724Y2055926D02*
G01*
X1382217Y2055926D01*
X1382217Y2102205D01*
X1374140Y2102205D01*
X1367891Y2101494D01*
X1362354Y2099614D01*
X1357477Y2096516D01*
X1353362Y2092401D01*
X1350314Y2087524D01*
X1348384Y2082088D01*
X1347724Y2075738D01*
G37*
G36*
X999236Y2190394D02*
G01*
X1058164Y2190394D01*
X1064412Y2191105D01*
X1069949Y2193036D01*
X1074826Y2196084D01*
X1078890Y2200198D01*
X1081938Y2205075D01*
X1083868Y2210562D01*
X1084630Y2216861D01*
X1084630Y2322728D01*
X1083868Y2329078D01*
X1080363Y2337765D01*
X1080008Y2340610D01*
X1080008Y2372715D01*
X1080770Y2376576D01*
X1082954Y2379878D01*
X1086256Y2382062D01*
X1090168Y2382875D01*
X1096975Y2382875D01*
X1103274Y2383586D01*
X1108760Y2385466D01*
X1113637Y2388565D01*
X1117803Y2392680D01*
X1120800Y2397556D01*
X1122730Y2402992D01*
X1123442Y2409342D01*
X1123442Y2521458D01*
X1122730Y2527757D01*
X1120800Y2533243D01*
X1117803Y2538120D01*
X1113637Y2542235D01*
X1108760Y2545283D01*
X1103274Y2547213D01*
X1096975Y2547924D01*
X960374Y2547924D01*
X954125Y2547213D01*
X948588Y2545283D01*
X943711Y2542235D01*
X939596Y2538120D01*
X936599Y2533243D01*
X934669Y2527757D01*
X933907Y2521458D01*
X933907Y2409342D01*
X934669Y2402992D01*
X936599Y2397556D01*
X939596Y2392680D01*
X943711Y2388565D01*
X948588Y2385466D01*
X954125Y2383586D01*
X960374Y2382875D01*
X967232Y2382875D01*
X971092Y2382062D01*
X974394Y2379878D01*
X976630Y2376576D01*
X977392Y2372715D01*
X977392Y2340610D01*
X976985Y2337765D01*
X975410Y2334514D01*
X973480Y2329078D01*
X972769Y2322728D01*
X972769Y2216861D01*
X973480Y2210562D01*
X975410Y2205075D01*
X978458Y2200198D01*
X982573Y2196084D01*
X987450Y2193036D01*
X992936Y2191105D01*
G37*
G36*
X529336Y2190394D02*
G01*
X588264Y2190394D01*
X594512Y2191105D01*
X600049Y2193036D01*
X604926Y2196084D01*
X608990Y2200198D01*
X612038Y2205075D01*
X613968Y2210562D01*
X614730Y2216861D01*
X614730Y2322728D01*
X613968Y2329078D01*
X610463Y2337765D01*
X610108Y2340610D01*
X610108Y2372715D01*
X610870Y2376576D01*
X613054Y2379878D01*
X616356Y2382062D01*
X620268Y2382875D01*
X627075Y2382875D01*
X633374Y2383586D01*
X638860Y2385466D01*
X643737Y2388565D01*
X647903Y2392680D01*
X650900Y2397556D01*
X652830Y2402992D01*
X653542Y2409342D01*
X653542Y2521458D01*
X652830Y2527757D01*
X650900Y2533243D01*
X647903Y2538120D01*
X643737Y2542235D01*
X638860Y2545283D01*
X633374Y2547213D01*
X627075Y2547924D01*
X490474Y2547924D01*
X484225Y2547213D01*
X478688Y2545283D01*
X473811Y2542235D01*
X469696Y2538120D01*
X466699Y2533243D01*
X464769Y2527757D01*
X464007Y2521458D01*
X464007Y2409342D01*
X464769Y2402992D01*
X466699Y2397556D01*
X469696Y2392680D01*
X473811Y2388565D01*
X478688Y2385466D01*
X484225Y2383586D01*
X490474Y2382875D01*
X497332Y2382875D01*
X501192Y2382062D01*
X504494Y2379878D01*
X506730Y2376576D01*
X507492Y2372715D01*
X507492Y2340610D01*
X507085Y2337765D01*
X505510Y2334514D01*
X503580Y2329078D01*
X502869Y2322728D01*
X502869Y2216861D01*
X503580Y2210562D01*
X505510Y2205075D01*
X508558Y2200198D01*
X512673Y2196084D01*
X517550Y2193036D01*
X523036Y2191105D01*
G37*
G36*
X1469186Y2190394D02*
G01*
X1528013Y2190394D01*
X1534363Y2191105D01*
X1539798Y2193036D01*
X1544675Y2196084D01*
X1548790Y2200198D01*
X1551838Y2205075D01*
X1553768Y2210562D01*
X1554530Y2216861D01*
X1554530Y2322728D01*
X1553768Y2329078D01*
X1550263Y2337765D01*
X1549908Y2340610D01*
X1549908Y2372715D01*
X1550670Y2376576D01*
X1552854Y2379878D01*
X1556156Y2382062D01*
X1560118Y2382875D01*
X1566926Y2382875D01*
X1573174Y2383586D01*
X1578711Y2385466D01*
X1583588Y2388565D01*
X1587652Y2392680D01*
X1590700Y2397556D01*
X1592630Y2402992D01*
X1593342Y2409342D01*
X1593342Y2521458D01*
X1592630Y2527757D01*
X1590700Y2533243D01*
X1587652Y2538120D01*
X1583588Y2542235D01*
X1578711Y2545283D01*
X1573174Y2547213D01*
X1566926Y2547924D01*
X1430274Y2547924D01*
X1424025Y2547213D01*
X1418488Y2545283D01*
X1413611Y2542235D01*
X1409496Y2538120D01*
X1406448Y2533243D01*
X1404518Y2527757D01*
X1403858Y2521458D01*
X1403858Y2409342D01*
X1404518Y2402992D01*
X1406448Y2397556D01*
X1409496Y2392680D01*
X1413611Y2388565D01*
X1418488Y2385466D01*
X1424025Y2383586D01*
X1430274Y2382875D01*
X1437182Y2382875D01*
X1441043Y2382062D01*
X1444345Y2379878D01*
X1446479Y2376576D01*
X1447292Y2372715D01*
X1447292Y2340610D01*
X1446936Y2337765D01*
X1445361Y2334514D01*
X1443431Y2329078D01*
X1442669Y2322728D01*
X1442669Y2216861D01*
X1443431Y2210562D01*
X1445361Y2205075D01*
X1448409Y2200198D01*
X1452473Y2196084D01*
X1457350Y2193036D01*
X1462836Y2191105D01*
G37*

%LPD*%
G36*
X913434Y597712D02*
G01*
X762000Y446227D01*
X762000Y203200D01*
X1466850Y203149D01*
X1466850Y444449D01*
X1313484Y597712D01*
G37*
D10*
X412800Y130606D02*
G01*
X485393Y203200D01*
X1115060Y203200D01*
D11*
X1784273Y800150D02*
G01*
X1852345Y868222D01*
X1852345Y1138478D01*
X1764207Y1138478D01*
X1689087Y719703D02*
G01*
X1824603Y719703D01*
X1944192Y839292D01*
X1944192Y978560D01*
X1764207Y1138554D02*
G01*
X1579245Y1138554D01*
X1403350Y1314450D01*
X654050Y1314450D01*
X393700Y1574800D01*
X596900Y1206500D02*
G01*
X1405115Y1206500D01*
X1633054Y978560D01*
X1764207Y978560D01*
X1333500Y1498600D02*
G01*
X1613560Y1218539D01*
X1764207Y1218539D01*
X1944192Y1058544D02*
G01*
X1944192Y978560D01*
X1944192Y1138554D02*
G01*
X1944192Y1058544D01*
X1944192Y1218539D02*
G01*
X1944192Y1138554D01*
D10*
X1113459Y597763D02*
G01*
X1313459Y597763D01*
X913460Y597763D02*
G01*
X1113459Y597763D01*
D12*
X558800Y2665399D02*
G01*
X827097Y2933697D01*
X927100Y2933697D01*
X1028700Y2665399D02*
G01*
X1296997Y2933697D01*
X1333500Y2933697D01*
D10*
X913460Y1047747D02*
G01*
X1113459Y1047747D01*
X1313459Y1047747D02*
G01*
X1113459Y1047747D01*
D12*
X1498600Y2665399D02*
G01*
X1739900Y2906699D01*
X1739900Y2933697D01*
X1498600Y2269794D02*
G01*
X1498600Y2465400D01*
X1028700Y2269794D02*
G01*
X1028700Y2465400D01*
X558800Y2269794D02*
G01*
X558800Y2465400D01*
D11*
X1460500Y1562100D02*
G01*
X1460500Y1627197D01*
X1547799Y1714497D01*
X1547799Y1714500D02*
G01*
X1593595Y1760296D01*
X1593595Y2022805D01*
X1219200Y1562100D02*
G01*
X1090599Y1690700D01*
X1090599Y1714497D01*
X1090599Y1714500D02*
G01*
X1123695Y1747596D01*
X1123695Y2022805D01*
X762000Y1562100D02*
G01*
X762000Y1573197D01*
X620699Y1714497D01*
X620699Y1714500D02*
G01*
X653795Y1747596D01*
X653795Y2022805D01*
D10*
X520623Y2933750D02*
G01*
X253923Y2667050D01*
X253923Y1047800D01*
X913561Y1047800D01*
D11*
X406323Y787450D02*
G01*
X1676323Y787450D01*
X1689100Y787400D01*
X1689023Y393750D01*
D13*
G01*
X412800Y130606D03*
G01*
X1803450Y130606D03*
D14*
G01*
X1764202Y978560D03*
G01*
X1944197Y978560D03*
D15*
G01*
X1764202Y1058544D03*
G01*
X1944197Y1058544D03*
G01*
X1764202Y1138554D03*
G01*
X1944197Y1138554D03*
D14*
G01*
X1764202Y1218539D03*
G01*
X1944197Y1218539D03*
D16*
G01*
X1547804Y1714499D03*
G01*
X1347795Y1714499D03*
G01*
X1090604Y1714499D03*
G01*
X890595Y1714499D03*
G01*
X620704Y1714499D03*
G01*
X420695Y1714499D03*
D17*
G01*
X653796Y2022800D03*
G01*
X463803Y2022800D03*
G01*
X558799Y2269799D03*
G01*
X1123696Y2022800D03*
G01*
X933703Y2022800D03*
G01*
X1028699Y2269799D03*
G01*
X1593595Y2022800D03*
G01*
X1403603Y2022800D03*
G01*
X1498600Y2269799D03*
D18*
G01*
X1498600Y2665399D03*
D19*
G01*
X1498600Y2465395D03*
D18*
G01*
X1028700Y2665399D03*
D19*
G01*
X1028700Y2465395D03*
D18*
G01*
X558800Y2665399D03*
D19*
G01*
X558800Y2465395D03*
D20*
G01*
X913460Y1047750D03*
G01*
X1113459Y1047750D03*
G01*
X1313459Y1047750D03*
G01*
X1313459Y597763D03*
G01*
X1113459Y597763D03*
G01*
X913460Y597763D03*
D21*
G01*
X520700Y2933700D03*
G01*
X927100Y2933700D03*
G01*
X1333500Y2933700D03*
G01*
X1739900Y2933700D03*
D22*
G01*
X1115060Y203200D03*
D23*
G01*
X1460500Y1562100D03*
G01*
X1219200Y1562100D03*
G01*
X762000Y1562100D03*
G01*
X1568450Y317500D03*
G01*
X292100Y2882900D03*
G01*
X107950Y685800D03*
G01*
X107950Y387350D03*
G01*
X1536700Y2921000D03*
G01*
X1123950Y2921000D03*
G01*
X1955800Y2844800D03*
G01*
X393700Y1574800D03*
G01*
X406400Y787400D03*
G01*
X1689100Y393700D03*
G01*
X107950Y482600D03*
G01*
X107950Y584200D03*
G01*
X850900Y1879600D03*
G01*
X863600Y2362200D03*
G01*
X1308100Y2451100D03*
G01*
X1308100Y1930400D03*
G01*
X107950Y787400D03*
G01*
X596900Y1206500D03*
G01*
X1333500Y1498600D03*
G01*
X1784350Y800100D03*
G01*
X2120900Y1295400D03*
G01*
X2120900Y241300D03*
G01*
X2114550Y2679700D03*
G01*
X2114550Y2940050D03*
M02*
