G04 Layer: TopLayer*
G04 EasyEDA v6.5.23, 2023-04-30 22:23:46*
G04 780a14c897c5458fb3efe7b42501c717,664421963ecb4a5db0a4e46f32b0c09c,10*
G04 Gerber Generator version 0.2*
G04 Scale: 100 percent, Rotated: No, Reflected: No *
G04 Dimensions in millimeters *
G04 leading zeros omitted , absolute positions ,4 integer and 5 decimal *
%FSLAX45Y45*%
%MOMM*%

%AMMACRO1*21,1,$1,$2,0,0,$3*%
%ADD10C,0.6350*%
%ADD11C,0.2540*%
%ADD12R,4.0000X1.5000*%
%ADD13MACRO1,1.377X1.1325X90.0000*%
%ADD14R,0.7000X1.2500*%
%ADD15MACRO1,1.35X1.41X90.0000*%
%ADD16R,1.0008X1.5011*%
%ADD17MACRO1,1.35X1.41X0.0000*%
%ADD18R,1.3500X1.4100*%
%ADD19C,1.5000*%
%ADD20C,1.5240*%
%ADD21O,6.999986000000001X1.3999972*%
%ADD22C,0.6096*%
%ADD23C,0.0177*%

%LPD*%
G36*
X1483106Y1295958D02*
G01*
X1479245Y1296720D01*
X1475892Y1298905D01*
X1473708Y1302207D01*
X1472946Y1306118D01*
X1472946Y1443532D01*
X1472234Y1449882D01*
X1470304Y1455318D01*
X1467256Y1460246D01*
X1463141Y1464310D01*
X1458264Y1467408D01*
X1452829Y1469288D01*
X1446479Y1469999D01*
X1397152Y1469999D01*
X1393545Y1470710D01*
X1390396Y1472641D01*
X1388110Y1475587D01*
X1387094Y1479143D01*
X1387398Y1482801D01*
X1388973Y1488795D01*
X1389888Y1498600D01*
X1388973Y1508404D01*
X1386484Y1517853D01*
X1382318Y1526794D01*
X1376629Y1534820D01*
X1369720Y1541780D01*
X1361643Y1547418D01*
X1352804Y1551533D01*
X1343304Y1554073D01*
X1333550Y1554937D01*
X1323695Y1554073D01*
X1314196Y1551533D01*
X1305306Y1547418D01*
X1297279Y1541780D01*
X1290320Y1534820D01*
X1287373Y1532128D01*
X1283563Y1530756D01*
X1279601Y1530959D01*
X1276045Y1532686D01*
X1273352Y1535684D01*
X1272082Y1539443D01*
X1272336Y1543456D01*
X1274673Y1552295D01*
X1275588Y1562100D01*
X1274673Y1571904D01*
X1272184Y1581353D01*
X1268018Y1590294D01*
X1262329Y1598320D01*
X1260754Y1599895D01*
X1258570Y1603197D01*
X1257808Y1607108D01*
X1257808Y2525064D01*
X1258366Y2528417D01*
X1259941Y2531364D01*
X1266545Y2537714D01*
X1269695Y2542641D01*
X1271524Y2548077D01*
X1272336Y2554427D01*
X1272336Y2703372D01*
X1271625Y2709672D01*
X1269136Y2716428D01*
X1268577Y2720238D01*
X1269492Y2723997D01*
X1271727Y2727147D01*
X1274927Y2729280D01*
X1278686Y2729992D01*
X1314602Y2729992D01*
X1318361Y2729280D01*
X1321612Y2727147D01*
X1323898Y2723997D01*
X1324711Y2720238D01*
X1324152Y2716428D01*
X1321765Y2709672D01*
X1321054Y2703372D01*
X1321054Y2554427D01*
X1321765Y2548077D01*
X1323695Y2542641D01*
X1326743Y2537714D01*
X1330807Y2533650D01*
X1335735Y2530551D01*
X1341120Y2528671D01*
X1349197Y2527909D01*
X1352804Y2526842D01*
X1355750Y2524607D01*
X1357680Y2521458D01*
X1358392Y2517749D01*
X1358392Y1626107D01*
X1359154Y1618081D01*
X1361338Y1610868D01*
X1364945Y1604162D01*
X1370076Y1597964D01*
X1401368Y1566621D01*
X1403400Y1563725D01*
X1404315Y1560322D01*
X1404975Y1552295D01*
X1407515Y1542846D01*
X1411681Y1533906D01*
X1417320Y1525879D01*
X1424279Y1518920D01*
X1432306Y1513281D01*
X1441196Y1509166D01*
X1450695Y1506626D01*
X1460550Y1505762D01*
X1470304Y1506626D01*
X1479804Y1509166D01*
X1488643Y1513281D01*
X1496720Y1518920D01*
X1503629Y1525879D01*
X1509318Y1533906D01*
X1513484Y1542846D01*
X1515973Y1552295D01*
X1516888Y1562100D01*
X1515973Y1571904D01*
X1513484Y1581353D01*
X1509318Y1590294D01*
X1503629Y1598320D01*
X1496720Y1605280D01*
X1488643Y1610918D01*
X1479804Y1615033D01*
X1470304Y1617573D01*
X1462227Y1618284D01*
X1458823Y1619199D01*
X1455928Y1621231D01*
X1438554Y1638604D01*
X1436370Y1641906D01*
X1435608Y1645818D01*
X1435608Y2517749D01*
X1436268Y2521458D01*
X1438198Y2524607D01*
X1441196Y2526842D01*
X1444802Y2527909D01*
X1452829Y2528671D01*
X1458264Y2530551D01*
X1463141Y2533650D01*
X1467256Y2537714D01*
X1470304Y2542641D01*
X1472234Y2548077D01*
X1472946Y2554427D01*
X1472946Y2674467D01*
X1473708Y2678379D01*
X1475892Y2681681D01*
X1479245Y2683865D01*
X1483106Y2684627D01*
X1486966Y2683865D01*
X1490268Y2681681D01*
X1518716Y2653233D01*
X1520901Y2649931D01*
X1521764Y2646019D01*
X1521764Y2554427D01*
X1522476Y2548077D01*
X1524304Y2542641D01*
X1527454Y2537714D01*
X1531518Y2533650D01*
X1536395Y2530551D01*
X1541830Y2528671D01*
X1548180Y2527909D01*
X1647088Y2527909D01*
X1653438Y2528671D01*
X1658874Y2530551D01*
X1660804Y2531770D01*
X1664868Y2533243D01*
X1669186Y2532888D01*
X1672945Y2530805D01*
X1675536Y2527350D01*
X1676450Y2523185D01*
X1676450Y1474774D01*
X1675536Y1470609D01*
X1672945Y1467154D01*
X1669186Y1465072D01*
X1664868Y1464716D01*
X1660804Y1466189D01*
X1658874Y1467408D01*
X1653438Y1469288D01*
X1647088Y1469999D01*
X1548180Y1469999D01*
X1541830Y1469288D01*
X1536395Y1467408D01*
X1531518Y1464310D01*
X1527454Y1460246D01*
X1524304Y1455318D01*
X1522476Y1449882D01*
X1521764Y1443532D01*
X1521764Y1306118D01*
X1520901Y1302207D01*
X1518716Y1298905D01*
X1515414Y1296720D01*
X1511554Y1295958D01*
G37*

%LPD*%
G36*
X648055Y38608D02*
G01*
X643991Y39471D01*
X640537Y42011D01*
X638403Y45669D01*
X637997Y49885D01*
X638708Y56184D01*
X638708Y135432D01*
X639470Y139344D01*
X641654Y142595D01*
X645007Y144830D01*
X648919Y145592D01*
X753770Y145592D01*
X758139Y144627D01*
X761695Y141833D01*
X764946Y137769D01*
X774547Y128828D01*
X785215Y121259D01*
X796899Y115265D01*
X809193Y110896D01*
X821994Y108204D01*
X835456Y107289D01*
X1394764Y107289D01*
X1408074Y108204D01*
X1420977Y110896D01*
X1433220Y115265D01*
X1444904Y121259D01*
X1455572Y128828D01*
X1465122Y137769D01*
X1473352Y147929D01*
X1480159Y159105D01*
X1485392Y171094D01*
X1488897Y183692D01*
X1489913Y190754D01*
X1491996Y197459D01*
X1492758Y203758D01*
X1492758Y444195D01*
X1492046Y450240D01*
X1490167Y455726D01*
X1487068Y460654D01*
X1484934Y463042D01*
X1405890Y542036D01*
X1403604Y545541D01*
X1402943Y549706D01*
X1404061Y553770D01*
X1406347Y558393D01*
X1410766Y571093D01*
X1413408Y584301D01*
X1414322Y597763D01*
X1413408Y611225D01*
X1410766Y624433D01*
X1406347Y637133D01*
X1400251Y649173D01*
X1392631Y660298D01*
X1383588Y670306D01*
X1373327Y678992D01*
X1361897Y686257D01*
X1349756Y691896D01*
X1336852Y695909D01*
X1323543Y698144D01*
X1310081Y698601D01*
X1296670Y697230D01*
X1283563Y694131D01*
X1270965Y689254D01*
X1259179Y682802D01*
X1248308Y674827D01*
X1238656Y665429D01*
X1233779Y659282D01*
X1231595Y657199D01*
X1228801Y655878D01*
X1225804Y655421D01*
X1201318Y655421D01*
X1198067Y655929D01*
X1195171Y657453D01*
X1183589Y670306D01*
X1173276Y678992D01*
X1161897Y686257D01*
X1149705Y691896D01*
X1136853Y695909D01*
X1123543Y698144D01*
X1110081Y698601D01*
X1096670Y697230D01*
X1083614Y694131D01*
X1070965Y689254D01*
X1059180Y682802D01*
X1048308Y674827D01*
X1038656Y665429D01*
X1033830Y659282D01*
X1031544Y657199D01*
X1028852Y655878D01*
X1025804Y655421D01*
X1001318Y655421D01*
X998118Y655929D01*
X995222Y657453D01*
X983589Y670306D01*
X973277Y678992D01*
X961948Y686257D01*
X949756Y691896D01*
X936802Y695909D01*
X923544Y698144D01*
X910082Y698601D01*
X896670Y697230D01*
X883564Y694131D01*
X870966Y689254D01*
X859129Y682802D01*
X848309Y674827D01*
X843280Y669899D01*
X839927Y667766D01*
X836015Y667004D01*
X832154Y667816D01*
X828903Y670052D01*
X826769Y673303D01*
X826008Y677164D01*
X826008Y901496D01*
X826769Y905357D01*
X828954Y908659D01*
X870305Y950010D01*
X873556Y952195D01*
X877316Y953008D01*
X881126Y952296D01*
X883564Y951382D01*
X896670Y948283D01*
X910082Y946912D01*
X923544Y947369D01*
X936802Y949604D01*
X949756Y953617D01*
X961948Y959256D01*
X973277Y966520D01*
X983589Y975207D01*
X992632Y985215D01*
X1000252Y996340D01*
X1004316Y1004417D01*
X1006652Y1007414D01*
X1009954Y1009396D01*
X1013764Y1010005D01*
X1017473Y1009142D01*
X1020622Y1006957D01*
X1030325Y990650D01*
X1038656Y980084D01*
X1048308Y970686D01*
X1059180Y962710D01*
X1070965Y956259D01*
X1083614Y951382D01*
X1096670Y948283D01*
X1110081Y946912D01*
X1123543Y947369D01*
X1136853Y949604D01*
X1149705Y953617D01*
X1161897Y959256D01*
X1173276Y966520D01*
X1183589Y975207D01*
X1192631Y985215D01*
X1200302Y996340D01*
X1204315Y1004417D01*
X1206652Y1007414D01*
X1209954Y1009396D01*
X1213713Y1010005D01*
X1217472Y1009142D01*
X1220622Y1006957D01*
X1230274Y990650D01*
X1238656Y980084D01*
X1248308Y970686D01*
X1259179Y962710D01*
X1270965Y956259D01*
X1283563Y951382D01*
X1296670Y948283D01*
X1310081Y946912D01*
X1323543Y947369D01*
X1336852Y949604D01*
X1346352Y952550D01*
X1350010Y953008D01*
X1353515Y952144D01*
X1356563Y950061D01*
X1382623Y923950D01*
X1388872Y918819D01*
X1395577Y915263D01*
X1402740Y913079D01*
X1410766Y912266D01*
X1483918Y912266D01*
X1487779Y911504D01*
X1491081Y909319D01*
X1493316Y906018D01*
X1494129Y902106D01*
X1494129Y880973D01*
X1494790Y874674D01*
X1496720Y869187D01*
X1499768Y864311D01*
X1503883Y860196D01*
X1507947Y856691D01*
X1509522Y852932D01*
X1509522Y848868D01*
X1507947Y845108D01*
X1503883Y841603D01*
X1499768Y837488D01*
X1496720Y832612D01*
X1494790Y827125D01*
X1494129Y820826D01*
X1494129Y792480D01*
X1547418Y792480D01*
X1547418Y844346D01*
X1548180Y848207D01*
X1550365Y851509D01*
X1553667Y853744D01*
X1557528Y854506D01*
X1617472Y854506D01*
X1621332Y853744D01*
X1624634Y851509D01*
X1626819Y848207D01*
X1627581Y844346D01*
X1627581Y792480D01*
X1680870Y792480D01*
X1680870Y820826D01*
X1680210Y827125D01*
X1678279Y832612D01*
X1675180Y837488D01*
X1671116Y841603D01*
X1667052Y845108D01*
X1665427Y848868D01*
X1665427Y852932D01*
X1667052Y856691D01*
X1671116Y860196D01*
X1675180Y864311D01*
X1678279Y869187D01*
X1680210Y874674D01*
X1680870Y880973D01*
X1680870Y1020826D01*
X1680210Y1027176D01*
X1678279Y1032611D01*
X1675180Y1037539D01*
X1671116Y1041603D01*
X1666239Y1044702D01*
X1660702Y1046581D01*
X1654454Y1047292D01*
X1520545Y1047292D01*
X1514297Y1046581D01*
X1508760Y1044702D01*
X1503883Y1041603D01*
X1499768Y1037539D01*
X1496720Y1032611D01*
X1494790Y1027176D01*
X1494129Y1020826D01*
X1494129Y999642D01*
X1493316Y995781D01*
X1491081Y992479D01*
X1487779Y990295D01*
X1483918Y989482D01*
X1430477Y989482D01*
X1426616Y990295D01*
X1423365Y992479D01*
X1411122Y1004671D01*
X1408988Y1007770D01*
X1408176Y1011478D01*
X1408734Y1015187D01*
X1410766Y1021080D01*
X1413408Y1034287D01*
X1414322Y1047750D01*
X1413408Y1061212D01*
X1410766Y1074420D01*
X1406347Y1087120D01*
X1400251Y1099159D01*
X1392631Y1110284D01*
X1383588Y1120292D01*
X1373327Y1128979D01*
X1361897Y1136243D01*
X1349756Y1141882D01*
X1336852Y1145895D01*
X1325727Y1147775D01*
X1321765Y1149350D01*
X1318717Y1152448D01*
X1317345Y1156462D01*
X1317650Y1160729D01*
X1319733Y1164488D01*
X1323238Y1167028D01*
X1327404Y1167942D01*
X1579930Y1167942D01*
X1583791Y1167180D01*
X1587093Y1164945D01*
X1775764Y976376D01*
X1781911Y971245D01*
X1788617Y967689D01*
X1795830Y965504D01*
X1803907Y964692D01*
X1875789Y964692D01*
X1879650Y963930D01*
X1882952Y961694D01*
X1885188Y958443D01*
X1886000Y954532D01*
X1886000Y935024D01*
X1886661Y928674D01*
X1888591Y923239D01*
X1891639Y918311D01*
X1895754Y914247D01*
X1901647Y910539D01*
X1904136Y908303D01*
X1905762Y905306D01*
X1906422Y901446D01*
X1905762Y898093D01*
X1904136Y895096D01*
X1901647Y892860D01*
X1895754Y889152D01*
X1891639Y885088D01*
X1888591Y880160D01*
X1886661Y874725D01*
X1886000Y868375D01*
X1886000Y848868D01*
X1885188Y844956D01*
X1882952Y841705D01*
X1879650Y839469D01*
X1875789Y838708D01*
X1829307Y838708D01*
X1825447Y839469D01*
X1822145Y841705D01*
X1820570Y843280D01*
X1812493Y848918D01*
X1803654Y853033D01*
X1794154Y855573D01*
X1784400Y856437D01*
X1774545Y855573D01*
X1765046Y853033D01*
X1756156Y848918D01*
X1748129Y843280D01*
X1741170Y836320D01*
X1735531Y828294D01*
X1731365Y819353D01*
X1728825Y809904D01*
X1727962Y800100D01*
X1728825Y790295D01*
X1731365Y780846D01*
X1735531Y771906D01*
X1741170Y763879D01*
X1748129Y756920D01*
X1756156Y751281D01*
X1765046Y747166D01*
X1774545Y744626D01*
X1784400Y743762D01*
X1794154Y744626D01*
X1803654Y747166D01*
X1812493Y751281D01*
X1820570Y756920D01*
X1822145Y758494D01*
X1825447Y760730D01*
X1829307Y761492D01*
X1875789Y761492D01*
X1879650Y760730D01*
X1882952Y758494D01*
X1885188Y755243D01*
X1886000Y751332D01*
X1886000Y731824D01*
X1886661Y725474D01*
X1888591Y720039D01*
X1891639Y715111D01*
X1895754Y711047D01*
X1901647Y707339D01*
X1904136Y705104D01*
X1905762Y702106D01*
X1906422Y698246D01*
X1905762Y694893D01*
X1904136Y691896D01*
X1901647Y689660D01*
X1895754Y685952D01*
X1891639Y681888D01*
X1888591Y676960D01*
X1886661Y671525D01*
X1886000Y665175D01*
X1886000Y637692D01*
X1933854Y637692D01*
X1933854Y695198D01*
X1934565Y699058D01*
X1936800Y702360D01*
X1940102Y704545D01*
X1943963Y705358D01*
X1993036Y705358D01*
X1996897Y704545D01*
X2000199Y702360D01*
X2002434Y699058D01*
X2003145Y695198D01*
X2003145Y637692D01*
X2050999Y637692D01*
X2050999Y665175D01*
X2050288Y671525D01*
X2048357Y676960D01*
X2045309Y681888D01*
X2041245Y685952D01*
X2035352Y689660D01*
X2032812Y691896D01*
X2031136Y694893D01*
X2030577Y698754D01*
X2031136Y702106D01*
X2032812Y705104D01*
X2035352Y707339D01*
X2041245Y711047D01*
X2045309Y715111D01*
X2048357Y720039D01*
X2050288Y725474D01*
X2050999Y731824D01*
X2050999Y868375D01*
X2050288Y874725D01*
X2048357Y880160D01*
X2045309Y885088D01*
X2041245Y889152D01*
X2035352Y892860D01*
X2032812Y895096D01*
X2031136Y898093D01*
X2030577Y901953D01*
X2031136Y905306D01*
X2032812Y908303D01*
X2035352Y910539D01*
X2041245Y914247D01*
X2045309Y918311D01*
X2048357Y923239D01*
X2050288Y928674D01*
X2050999Y935024D01*
X2050999Y1071575D01*
X2050288Y1077925D01*
X2048357Y1083360D01*
X2045309Y1088288D01*
X2041245Y1092352D01*
X2035352Y1096060D01*
X2032812Y1098296D01*
X2031136Y1101293D01*
X2030577Y1105154D01*
X2031136Y1108506D01*
X2032812Y1111504D01*
X2035352Y1113739D01*
X2041245Y1117447D01*
X2045309Y1121511D01*
X2048357Y1126439D01*
X2050288Y1131874D01*
X2050999Y1138224D01*
X2050999Y1274775D01*
X2050288Y1281125D01*
X2048357Y1286560D01*
X2045309Y1291488D01*
X2041245Y1295552D01*
X2036368Y1298651D01*
X2030831Y1300530D01*
X2024583Y1301242D01*
X1912416Y1301242D01*
X1906066Y1300530D01*
X1900631Y1298651D01*
X1895754Y1295552D01*
X1891639Y1291488D01*
X1888591Y1286560D01*
X1886661Y1281125D01*
X1886000Y1274775D01*
X1886000Y1255268D01*
X1885188Y1251356D01*
X1882952Y1248105D01*
X1879650Y1245870D01*
X1875789Y1245108D01*
X1696618Y1245108D01*
X1692656Y1245870D01*
X1689354Y1248105D01*
X1670456Y1267053D01*
X1668424Y1269847D01*
X1667510Y1273098D01*
X1667713Y1276502D01*
X1668983Y1279652D01*
X1671015Y1282801D01*
X1672843Y1288237D01*
X1673606Y1294587D01*
X1673606Y1393190D01*
X1674418Y1397101D01*
X1676552Y1400352D01*
X1679854Y1402588D01*
X1683816Y1403350D01*
X2177440Y1403350D01*
X2181402Y1402588D01*
X2184654Y1400352D01*
X2186838Y1397101D01*
X2187600Y1393190D01*
X2187600Y48768D01*
X2186838Y44856D01*
X2184654Y41605D01*
X2181402Y39370D01*
X2177440Y38608D01*
X2038756Y38608D01*
X2034641Y39471D01*
X2031136Y42011D01*
X2029104Y45669D01*
X2028647Y49885D01*
X2029358Y56184D01*
X2029358Y86766D01*
X1909825Y86766D01*
X1909825Y48768D01*
X1909013Y44856D01*
X1906778Y41605D01*
X1903577Y39370D01*
X1899615Y38608D01*
X1707286Y38608D01*
X1703324Y39370D01*
X1700123Y41605D01*
X1697888Y44856D01*
X1697075Y48768D01*
X1697075Y86766D01*
X1577543Y86766D01*
X1577543Y56184D01*
X1578254Y49885D01*
X1577797Y45669D01*
X1575765Y42011D01*
X1572260Y39471D01*
X1568145Y38608D01*
G37*

%LPC*%
G36*
X1909825Y174447D02*
G01*
X2029358Y174447D01*
X2029358Y205028D01*
X2028647Y211378D01*
X2026716Y216814D01*
X2023668Y221742D01*
X2019554Y225806D01*
X2014677Y228904D01*
X2009241Y230784D01*
X2002891Y231495D01*
X1909825Y231495D01*
G37*
G36*
X1577543Y174447D02*
G01*
X1697075Y174447D01*
X1697075Y231495D01*
X1604010Y231495D01*
X1597660Y230784D01*
X1592224Y228904D01*
X1587296Y225806D01*
X1583232Y221742D01*
X1580184Y216814D01*
X1578254Y211378D01*
X1577543Y205028D01*
G37*
G36*
X1912416Y298958D02*
G01*
X2024583Y298958D01*
X2030831Y299669D01*
X2036368Y301548D01*
X2041245Y304647D01*
X2045309Y308711D01*
X2048357Y313639D01*
X2050288Y319074D01*
X2050999Y325424D01*
X2050999Y461975D01*
X2050288Y468325D01*
X2048357Y473760D01*
X2045309Y478688D01*
X2041245Y482752D01*
X2035352Y486460D01*
X2032812Y488696D01*
X2031136Y491693D01*
X2030577Y495554D01*
X2031136Y498906D01*
X2032812Y501904D01*
X2035352Y504139D01*
X2041245Y507847D01*
X2045309Y511911D01*
X2048357Y516839D01*
X2050288Y522274D01*
X2050999Y528624D01*
X2050999Y556107D01*
X2003145Y556107D01*
X2003145Y498601D01*
X2002434Y494741D01*
X2000199Y491439D01*
X1996897Y489254D01*
X1993036Y488442D01*
X1943963Y488442D01*
X1940102Y489254D01*
X1936800Y491439D01*
X1934565Y494741D01*
X1933854Y498601D01*
X1933854Y556107D01*
X1886000Y556107D01*
X1886000Y528624D01*
X1886661Y522274D01*
X1888591Y516839D01*
X1891639Y511911D01*
X1895754Y507847D01*
X1901647Y504139D01*
X1904136Y501904D01*
X1905762Y498906D01*
X1906422Y495046D01*
X1905762Y491693D01*
X1904136Y488696D01*
X1901647Y486460D01*
X1895754Y482752D01*
X1891639Y478688D01*
X1888591Y473760D01*
X1886661Y468325D01*
X1886000Y461975D01*
X1886000Y442468D01*
X1885188Y438556D01*
X1882952Y435305D01*
X1879650Y433070D01*
X1875789Y432308D01*
X1734057Y432308D01*
X1730197Y433070D01*
X1726895Y435305D01*
X1725320Y436880D01*
X1717243Y442518D01*
X1708404Y446633D01*
X1698904Y449173D01*
X1689150Y450037D01*
X1679295Y449173D01*
X1669796Y446633D01*
X1660906Y442518D01*
X1652879Y436880D01*
X1645920Y429920D01*
X1640281Y421893D01*
X1636115Y412953D01*
X1633575Y403504D01*
X1632712Y393700D01*
X1633575Y383895D01*
X1636115Y374446D01*
X1640281Y365506D01*
X1645920Y357479D01*
X1652879Y350520D01*
X1660906Y344881D01*
X1669796Y340766D01*
X1679295Y338226D01*
X1689150Y337362D01*
X1698904Y338226D01*
X1708404Y340766D01*
X1717243Y344881D01*
X1725320Y350520D01*
X1726895Y352094D01*
X1730197Y354330D01*
X1734057Y355092D01*
X1875789Y355092D01*
X1879650Y354330D01*
X1882952Y352094D01*
X1885188Y348843D01*
X1886000Y344932D01*
X1886000Y325424D01*
X1886661Y319074D01*
X1888591Y313639D01*
X1891639Y308711D01*
X1895754Y304647D01*
X1900631Y301548D01*
X1906066Y299669D01*
G37*
G36*
X1627581Y654507D02*
G01*
X1654454Y654507D01*
X1661363Y655421D01*
X1666239Y657098D01*
X1671116Y660196D01*
X1675180Y664260D01*
X1678279Y669188D01*
X1680210Y674624D01*
X1680870Y680974D01*
X1680870Y709320D01*
X1627581Y709320D01*
G37*
G36*
X1520545Y654507D02*
G01*
X1547418Y654507D01*
X1547418Y709320D01*
X1494129Y709320D01*
X1494129Y680974D01*
X1494790Y674624D01*
X1496720Y669188D01*
X1499768Y664260D01*
X1503883Y660196D01*
X1508760Y657098D01*
X1514297Y655218D01*
G37*

%LPD*%
G36*
X50139Y38608D02*
G01*
X46278Y39370D01*
X42976Y41605D01*
X40792Y44907D01*
X39979Y48818D01*
X51155Y2999282D01*
X51968Y3003143D01*
X54152Y3006445D01*
X57404Y3008630D01*
X61315Y3009392D01*
X429717Y3009392D01*
X434085Y3008376D01*
X437642Y3005582D01*
X439572Y3001518D01*
X439623Y2996996D01*
X437692Y2992932D01*
X436524Y2991459D01*
X429615Y2979724D01*
X424230Y2967177D01*
X420624Y2954020D01*
X418846Y2940507D01*
X418846Y2926892D01*
X420624Y2913380D01*
X424230Y2900222D01*
X429615Y2887675D01*
X436524Y2875940D01*
X444957Y2865221D01*
X454761Y2855722D01*
X465734Y2847644D01*
X477723Y2841091D01*
X490423Y2836214D01*
X503682Y2833014D01*
X517245Y2831693D01*
X530910Y2832150D01*
X544372Y2834386D01*
X557377Y2838450D01*
X569772Y2844190D01*
X581253Y2851505D01*
X591718Y2860294D01*
X600811Y2870454D01*
X608533Y2881680D01*
X614730Y2893822D01*
X619150Y2906725D01*
X621842Y2920085D01*
X622757Y2933700D01*
X621842Y2947314D01*
X619150Y2960674D01*
X614730Y2973578D01*
X608533Y2985719D01*
X603199Y2993491D01*
X601522Y2997555D01*
X601776Y3001924D01*
X603808Y3005785D01*
X607314Y3008477D01*
X611530Y3009392D01*
X836117Y3009392D01*
X840486Y3008426D01*
X844042Y3005582D01*
X846023Y3001518D01*
X846023Y2997047D01*
X844092Y2992932D01*
X842924Y2991459D01*
X836015Y2979724D01*
X830630Y2967177D01*
X827024Y2954020D01*
X825246Y2940507D01*
X825246Y2926892D01*
X827024Y2913380D01*
X830630Y2900222D01*
X836015Y2887675D01*
X842924Y2875940D01*
X851357Y2865221D01*
X861161Y2855722D01*
X872134Y2847644D01*
X884123Y2841091D01*
X896823Y2836214D01*
X910082Y2833014D01*
X923645Y2831693D01*
X937310Y2832150D01*
X950772Y2834386D01*
X963777Y2838450D01*
X976172Y2844190D01*
X987653Y2851505D01*
X998118Y2860294D01*
X1007211Y2870454D01*
X1014933Y2881680D01*
X1021130Y2893822D01*
X1025550Y2906725D01*
X1028242Y2920085D01*
X1029157Y2933700D01*
X1028242Y2947314D01*
X1025550Y2960674D01*
X1021130Y2973578D01*
X1014933Y2985719D01*
X1009548Y2993491D01*
X1007922Y2997555D01*
X1008126Y3001924D01*
X1010208Y3005836D01*
X1013714Y3008477D01*
X1017930Y3009392D01*
X1242517Y3009442D01*
X1246936Y3008426D01*
X1250442Y3005632D01*
X1252474Y3001568D01*
X1252474Y2997047D01*
X1250543Y2992983D01*
X1249324Y2991459D01*
X1242364Y2979724D01*
X1237030Y2967177D01*
X1233424Y2954020D01*
X1231595Y2940507D01*
X1231595Y2926892D01*
X1233424Y2913380D01*
X1237030Y2900222D01*
X1242364Y2887675D01*
X1249324Y2875940D01*
X1257808Y2865221D01*
X1267561Y2855722D01*
X1278534Y2847644D01*
X1290574Y2841091D01*
X1303274Y2836214D01*
X1316532Y2833014D01*
X1330045Y2831693D01*
X1343761Y2832150D01*
X1357122Y2834386D01*
X1370177Y2838450D01*
X1382522Y2844190D01*
X1394104Y2851505D01*
X1404518Y2860294D01*
X1413611Y2870454D01*
X1421333Y2881680D01*
X1427530Y2893822D01*
X1431950Y2906725D01*
X1434693Y2920085D01*
X1435608Y2933700D01*
X1434693Y2947314D01*
X1431950Y2960674D01*
X1427530Y2973578D01*
X1421333Y2985719D01*
X1415999Y2993491D01*
X1414322Y2997555D01*
X1414526Y3001924D01*
X1416558Y3005836D01*
X1420063Y3008477D01*
X1424381Y3009442D01*
X1648917Y3009442D01*
X1653336Y3008426D01*
X1656842Y3005632D01*
X1658874Y3001568D01*
X1658874Y2997047D01*
X1656943Y2992983D01*
X1655724Y2991459D01*
X1648764Y2979724D01*
X1643430Y2967177D01*
X1639824Y2954020D01*
X1637995Y2940507D01*
X1637995Y2926892D01*
X1639824Y2913380D01*
X1643430Y2900222D01*
X1648764Y2887675D01*
X1655724Y2875940D01*
X1664207Y2865221D01*
X1673961Y2855722D01*
X1684934Y2847644D01*
X1696974Y2841091D01*
X1709674Y2836214D01*
X1722932Y2833014D01*
X1736445Y2831693D01*
X1750161Y2832150D01*
X1763522Y2834386D01*
X1776577Y2838450D01*
X1788922Y2844190D01*
X1800504Y2851505D01*
X1810918Y2860294D01*
X1820011Y2870454D01*
X1827733Y2881680D01*
X1833930Y2893822D01*
X1838350Y2906725D01*
X1841093Y2920085D01*
X1842007Y2933700D01*
X1841093Y2947314D01*
X1838350Y2960674D01*
X1833930Y2973578D01*
X1827733Y2985719D01*
X1822399Y2993542D01*
X1820773Y2997606D01*
X1820925Y3001975D01*
X1822957Y3005836D01*
X1826463Y3008477D01*
X1830781Y3009442D01*
X2177440Y3009442D01*
X2181402Y3008680D01*
X2184654Y3006445D01*
X2186838Y3003194D01*
X2187600Y2999282D01*
X2187600Y2600960D01*
X2186838Y2597048D01*
X2184654Y2593797D01*
X2181402Y2591562D01*
X2177440Y2590800D01*
X1683816Y2590800D01*
X1679854Y2591562D01*
X1676552Y2593797D01*
X1674418Y2597048D01*
X1673606Y2600960D01*
X1673606Y2703372D01*
X1672843Y2709722D01*
X1671015Y2715158D01*
X1667865Y2720086D01*
X1663852Y2724150D01*
X1658874Y2727248D01*
X1653438Y2729128D01*
X1647088Y2729839D01*
X1555496Y2729839D01*
X1551584Y2730652D01*
X1548333Y2732836D01*
X1485595Y2795524D01*
X1479346Y2800654D01*
X1472692Y2804210D01*
X1465529Y2806395D01*
X1457502Y2807208D01*
X279857Y2807208D01*
X271830Y2806395D01*
X264617Y2804210D01*
X257962Y2800654D01*
X251764Y2795524D01*
X182575Y2726385D01*
X177495Y2720187D01*
X173888Y2713482D01*
X171704Y2706268D01*
X170942Y2698242D01*
X170942Y1092708D01*
X171704Y1084681D01*
X173888Y1077468D01*
X177495Y1070762D01*
X182575Y1064564D01*
X308610Y938530D01*
X310845Y935228D01*
X311556Y931367D01*
X311556Y885545D01*
X312318Y879246D01*
X314248Y873810D01*
X317246Y868883D01*
X321360Y864819D01*
X326237Y861720D01*
X331724Y859790D01*
X338023Y859078D01*
X358241Y859078D01*
X362153Y858316D01*
X365404Y856081D01*
X367588Y852728D01*
X368350Y848817D01*
X368198Y832662D01*
X367385Y828852D01*
X365201Y825601D01*
X363220Y823620D01*
X357581Y815594D01*
X353415Y806653D01*
X350926Y797204D01*
X350012Y787400D01*
X350926Y777595D01*
X353415Y768146D01*
X357581Y759206D01*
X363220Y751179D01*
X364794Y749604D01*
X367030Y746302D01*
X367792Y742391D01*
X367792Y731367D01*
X367182Y728014D01*
X365607Y725017D01*
X361848Y722020D01*
X357784Y717956D01*
X354685Y713028D01*
X352856Y707593D01*
X352094Y701243D01*
X352094Y577392D01*
X352856Y571042D01*
X354685Y565607D01*
X357784Y560679D01*
X361848Y556615D01*
X366776Y553516D01*
X372211Y551637D01*
X378561Y550926D01*
X447395Y550926D01*
X453745Y551637D01*
X459181Y553516D01*
X464108Y556615D01*
X468172Y560679D01*
X471271Y565607D01*
X473151Y571042D01*
X473862Y577392D01*
X473862Y701243D01*
X473151Y707593D01*
X471271Y713028D01*
X468172Y717956D01*
X464108Y722020D01*
X459181Y725119D01*
X450291Y728167D01*
X447446Y730402D01*
X445668Y733501D01*
X445008Y737057D01*
X445008Y742391D01*
X445770Y746302D01*
X447954Y749604D01*
X449580Y751179D01*
X455168Y759206D01*
X459384Y768146D01*
X461873Y777595D01*
X462788Y787400D01*
X461873Y797204D01*
X459384Y806653D01*
X455168Y815594D01*
X449580Y823620D01*
X448360Y824788D01*
X446176Y828141D01*
X445414Y832103D01*
X445617Y849020D01*
X446379Y852881D01*
X448614Y856132D01*
X451866Y858316D01*
X455726Y859078D01*
X477977Y859078D01*
X484276Y859790D01*
X489661Y861720D01*
X494588Y864819D01*
X498652Y868883D01*
X502208Y872947D01*
X505917Y874521D01*
X510032Y874521D01*
X513740Y872947D01*
X517296Y868883D01*
X521411Y864819D01*
X526338Y861720D01*
X531723Y859790D01*
X538022Y859078D01*
X566369Y859078D01*
X566369Y912418D01*
X514604Y912418D01*
X510692Y913180D01*
X507339Y915365D01*
X505206Y918667D01*
X504393Y922578D01*
X504393Y982421D01*
X505206Y986332D01*
X507339Y989634D01*
X510692Y991819D01*
X514604Y992581D01*
X566369Y992581D01*
X566369Y1045921D01*
X538022Y1045921D01*
X531723Y1045210D01*
X526338Y1043279D01*
X521411Y1040180D01*
X517296Y1036116D01*
X513740Y1032052D01*
X510032Y1030478D01*
X505917Y1030478D01*
X502208Y1032052D01*
X498652Y1036116D01*
X494588Y1040180D01*
X489661Y1043279D01*
X484276Y1045210D01*
X477977Y1045921D01*
X338023Y1045921D01*
X331724Y1045210D01*
X326237Y1043279D01*
X321868Y1041196D01*
X318465Y1040993D01*
X315214Y1041958D01*
X312420Y1043889D01*
X251104Y1105204D01*
X248920Y1108506D01*
X248158Y1112418D01*
X248158Y2678531D01*
X248920Y2682443D01*
X251104Y2685745D01*
X292404Y2726994D01*
X295757Y2729230D01*
X299618Y2729992D01*
X316382Y2729992D01*
X320192Y2729280D01*
X323392Y2727147D01*
X325628Y2723997D01*
X326542Y2720238D01*
X325983Y2716428D01*
X323545Y2709672D01*
X322834Y2703372D01*
X322834Y2554427D01*
X323596Y2548077D01*
X325475Y2542641D01*
X328523Y2537714D01*
X332587Y2533650D01*
X337515Y2530551D01*
X342950Y2528671D01*
X346100Y2528316D01*
X349554Y2527249D01*
X352501Y2524963D01*
X354380Y2521813D01*
X355092Y2518206D01*
X355092Y1619808D01*
X354330Y1615897D01*
X352094Y1612595D01*
X350520Y1611020D01*
X344881Y1602994D01*
X340715Y1594053D01*
X338226Y1584604D01*
X337312Y1574800D01*
X338226Y1564995D01*
X340715Y1555546D01*
X344881Y1546606D01*
X350520Y1538579D01*
X357428Y1531620D01*
X365556Y1525981D01*
X374396Y1521866D01*
X383895Y1519326D01*
X393700Y1518462D01*
X403453Y1519326D01*
X413004Y1521866D01*
X421843Y1525981D01*
X429920Y1531620D01*
X436880Y1538579D01*
X442468Y1546606D01*
X446684Y1555546D01*
X449173Y1564995D01*
X450088Y1574800D01*
X449173Y1584604D01*
X446684Y1594053D01*
X442468Y1602994D01*
X436880Y1611020D01*
X435254Y1612595D01*
X433070Y1615897D01*
X432308Y1619808D01*
X432308Y2517749D01*
X433070Y2521661D01*
X435254Y2524963D01*
X438556Y2527147D01*
X442468Y2527909D01*
X448208Y2527909D01*
X454558Y2528671D01*
X459993Y2530551D01*
X464921Y2533650D01*
X468985Y2537714D01*
X472084Y2542641D01*
X474014Y2548077D01*
X474726Y2554427D01*
X474726Y2703372D01*
X474065Y2709672D01*
X471627Y2716428D01*
X471068Y2720238D01*
X471881Y2723997D01*
X474116Y2727147D01*
X477418Y2729280D01*
X481126Y2729992D01*
X514553Y2729992D01*
X518261Y2729280D01*
X521512Y2727147D01*
X523798Y2723997D01*
X524611Y2720238D01*
X524052Y2716428D01*
X521614Y2709672D01*
X520954Y2703372D01*
X520954Y2554427D01*
X521665Y2548077D01*
X523544Y2542641D01*
X526643Y2537714D01*
X530707Y2533650D01*
X535635Y2530551D01*
X541070Y2528671D01*
X547420Y2527909D01*
X646379Y2527909D01*
X652729Y2528671D01*
X658164Y2530551D01*
X663092Y2533650D01*
X667105Y2537714D01*
X670204Y2542641D01*
X672084Y2548077D01*
X672846Y2554427D01*
X672846Y2703372D01*
X672134Y2709672D01*
X669696Y2716428D01*
X669137Y2720238D01*
X670001Y2723997D01*
X672287Y2727147D01*
X675487Y2729280D01*
X679246Y2729992D01*
X715162Y2729992D01*
X718921Y2729280D01*
X722172Y2727147D01*
X724408Y2723997D01*
X725271Y2720238D01*
X724712Y2716428D01*
X722274Y2709672D01*
X721664Y2703372D01*
X721664Y2672791D01*
X766165Y2672791D01*
X766165Y2719832D01*
X766927Y2723743D01*
X769162Y2726994D01*
X772464Y2729230D01*
X776376Y2729992D01*
X818743Y2729992D01*
X822706Y2729230D01*
X825906Y2726994D01*
X828192Y2723743D01*
X828903Y2719832D01*
X828903Y2672791D01*
X873556Y2672791D01*
X873556Y2703372D01*
X872794Y2709672D01*
X870356Y2716428D01*
X869797Y2720238D01*
X870712Y2723997D01*
X872896Y2727147D01*
X876147Y2729280D01*
X879957Y2729992D01*
X915822Y2729992D01*
X919581Y2729280D01*
X922883Y2727147D01*
X925068Y2723997D01*
X925931Y2720238D01*
X925372Y2716428D01*
X922934Y2709672D01*
X922274Y2703372D01*
X922274Y2611780D01*
X921512Y2607868D01*
X919276Y2604566D01*
X890828Y2576118D01*
X887526Y2573934D01*
X883666Y2573172D01*
X879754Y2573934D01*
X876503Y2576118D01*
X874268Y2579420D01*
X873556Y2583332D01*
X873556Y2585008D01*
X828903Y2585008D01*
X828903Y2518410D01*
X828192Y2514549D01*
X825906Y2511247D01*
X735025Y2420315D01*
X729945Y2414117D01*
X726338Y2407412D01*
X724154Y2400198D01*
X723392Y2392172D01*
X723392Y1607108D01*
X722630Y1603197D01*
X720394Y1599895D01*
X718820Y1598320D01*
X713181Y1590294D01*
X709015Y1581353D01*
X706526Y1571904D01*
X705612Y1562100D01*
X706526Y1552295D01*
X709015Y1542846D01*
X713181Y1533906D01*
X718820Y1525879D01*
X725728Y1518920D01*
X733856Y1513281D01*
X742696Y1509166D01*
X752195Y1506626D01*
X762000Y1505762D01*
X771753Y1506626D01*
X781304Y1509166D01*
X790143Y1513281D01*
X798220Y1518920D01*
X805180Y1525879D01*
X810768Y1533906D01*
X814984Y1542846D01*
X817473Y1552295D01*
X818388Y1562100D01*
X817473Y1571904D01*
X814984Y1581353D01*
X810768Y1590294D01*
X805180Y1598320D01*
X803554Y1599895D01*
X801370Y1603197D01*
X800608Y1607108D01*
X800608Y2372461D01*
X801370Y2376373D01*
X803554Y2379675D01*
X948842Y2524963D01*
X952195Y2527147D01*
X956106Y2527909D01*
X1047648Y2527909D01*
X1053998Y2528671D01*
X1059434Y2530551D01*
X1064361Y2533650D01*
X1068476Y2537714D01*
X1071524Y2542641D01*
X1073404Y2548077D01*
X1074166Y2554427D01*
X1074166Y2703372D01*
X1073454Y2709672D01*
X1071016Y2716428D01*
X1070457Y2720238D01*
X1071372Y2723997D01*
X1073556Y2727147D01*
X1076807Y2729280D01*
X1080617Y2729992D01*
X1113942Y2729992D01*
X1117752Y2729280D01*
X1120952Y2727147D01*
X1123238Y2723997D01*
X1124102Y2720238D01*
X1123492Y2716428D01*
X1121054Y2709672D01*
X1120394Y2703372D01*
X1120394Y2554427D01*
X1121156Y2548077D01*
X1122984Y2542641D01*
X1126134Y2537714D01*
X1130147Y2533650D01*
X1135075Y2530551D01*
X1140510Y2528671D01*
X1146860Y2527909D01*
X1170432Y2527909D01*
X1174292Y2527147D01*
X1177594Y2524963D01*
X1179830Y2521661D01*
X1180592Y2517749D01*
X1180592Y1607108D01*
X1179830Y1603197D01*
X1177594Y1599895D01*
X1176020Y1598320D01*
X1170381Y1590294D01*
X1166215Y1581353D01*
X1163726Y1571904D01*
X1162812Y1562100D01*
X1163726Y1552295D01*
X1166215Y1542846D01*
X1170381Y1533906D01*
X1176020Y1525879D01*
X1182928Y1518920D01*
X1191056Y1513281D01*
X1199896Y1509166D01*
X1209395Y1506626D01*
X1219250Y1505762D01*
X1229004Y1506626D01*
X1238504Y1509166D01*
X1247343Y1513281D01*
X1255420Y1518920D01*
X1262329Y1525879D01*
X1265275Y1528572D01*
X1269136Y1529943D01*
X1273098Y1529740D01*
X1276654Y1528013D01*
X1279347Y1525016D01*
X1280617Y1521256D01*
X1280363Y1517243D01*
X1277975Y1508404D01*
X1277112Y1498600D01*
X1277975Y1488795D01*
X1280515Y1479346D01*
X1284681Y1470406D01*
X1290320Y1462379D01*
X1291945Y1460804D01*
X1294079Y1457502D01*
X1294892Y1453591D01*
X1294892Y1433068D01*
X1295654Y1425041D01*
X1297838Y1417828D01*
X1301445Y1411122D01*
X1306576Y1404924D01*
X1318107Y1393393D01*
X1320292Y1390091D01*
X1321054Y1386179D01*
X1321054Y1306118D01*
X1320292Y1302207D01*
X1318107Y1298905D01*
X1314754Y1296720D01*
X1310894Y1295958D01*
X1282446Y1295908D01*
X1278534Y1296720D01*
X1275283Y1298905D01*
X1273098Y1302207D01*
X1272336Y1306068D01*
X1272336Y1443532D01*
X1271524Y1449882D01*
X1269695Y1455318D01*
X1266545Y1460246D01*
X1262481Y1464310D01*
X1257554Y1467408D01*
X1252118Y1469288D01*
X1245768Y1469999D01*
X1146860Y1469999D01*
X1140510Y1469288D01*
X1135075Y1467408D01*
X1130147Y1464310D01*
X1126134Y1460246D01*
X1122984Y1455318D01*
X1121156Y1449882D01*
X1120394Y1443532D01*
X1120394Y1306068D01*
X1119581Y1302207D01*
X1117396Y1298905D01*
X1114094Y1296670D01*
X1110234Y1295908D01*
X1084326Y1295908D01*
X1080414Y1296670D01*
X1077112Y1298905D01*
X1074928Y1302207D01*
X1074166Y1306068D01*
X1074166Y1443532D01*
X1073404Y1449882D01*
X1071524Y1455318D01*
X1068476Y1460246D01*
X1064361Y1464310D01*
X1059434Y1467408D01*
X1053998Y1469288D01*
X1047648Y1469999D01*
X948791Y1469999D01*
X942441Y1469288D01*
X937006Y1467408D01*
X932027Y1464310D01*
X927963Y1460246D01*
X924915Y1455318D01*
X922985Y1449882D01*
X922274Y1443532D01*
X922274Y1323441D01*
X921512Y1319580D01*
X919276Y1316278D01*
X916025Y1314043D01*
X912164Y1313281D01*
X908253Y1314043D01*
X904900Y1316278D01*
X876503Y1344726D01*
X874268Y1348028D01*
X873556Y1351889D01*
X873556Y1443532D01*
X872744Y1449882D01*
X870864Y1455318D01*
X867765Y1460246D01*
X863752Y1464310D01*
X858774Y1467408D01*
X853338Y1469288D01*
X846988Y1469999D01*
X748080Y1469999D01*
X741730Y1469288D01*
X736346Y1467408D01*
X731418Y1464310D01*
X727303Y1460246D01*
X724204Y1455318D01*
X722325Y1449882D01*
X721664Y1443532D01*
X721664Y1294587D01*
X722325Y1288237D01*
X724204Y1282801D01*
X727303Y1277874D01*
X731418Y1273810D01*
X736346Y1270711D01*
X741730Y1268831D01*
X748080Y1268069D01*
X839673Y1268069D01*
X843534Y1267307D01*
X846836Y1265123D01*
X932383Y1179626D01*
X938580Y1174496D01*
X945337Y1170940D01*
X952500Y1168755D01*
X960577Y1167942D01*
X1100074Y1167942D01*
X1104341Y1166977D01*
X1107846Y1164336D01*
X1109929Y1160475D01*
X1110081Y1156106D01*
X1108506Y1152042D01*
X1105255Y1149045D01*
X1101140Y1147673D01*
X1096670Y1147216D01*
X1083614Y1144117D01*
X1070965Y1139240D01*
X1059180Y1132789D01*
X1048308Y1124813D01*
X1038656Y1115415D01*
X1030325Y1104849D01*
X1020622Y1088542D01*
X1017473Y1086358D01*
X1013764Y1085494D01*
X1009954Y1086104D01*
X1006652Y1088085D01*
X1004316Y1091082D01*
X1000252Y1099159D01*
X992632Y1110284D01*
X983589Y1120292D01*
X973277Y1128979D01*
X961948Y1136243D01*
X949756Y1141882D01*
X936802Y1145895D01*
X923544Y1148130D01*
X910082Y1148588D01*
X896670Y1147216D01*
X883564Y1144117D01*
X870966Y1139240D01*
X859129Y1132789D01*
X848309Y1124813D01*
X838606Y1115415D01*
X830275Y1104849D01*
X823417Y1093266D01*
X818134Y1080820D01*
X814578Y1067866D01*
X812800Y1054506D01*
X812800Y1040993D01*
X814578Y1027633D01*
X818184Y1014374D01*
X818540Y1010869D01*
X817625Y1007414D01*
X815594Y1004519D01*
X760425Y949350D01*
X755345Y943102D01*
X751738Y936447D01*
X749554Y929233D01*
X748792Y921207D01*
X748792Y617118D01*
X748030Y613206D01*
X745794Y609904D01*
X585673Y449783D01*
X582523Y447649D01*
X578866Y446785D01*
X575157Y447395D01*
X571855Y449275D01*
X569468Y452221D01*
X568147Y457657D01*
X566318Y463092D01*
X563168Y468020D01*
X559104Y472084D01*
X554177Y475183D01*
X548792Y477062D01*
X542442Y477774D01*
X473557Y477774D01*
X467207Y477062D01*
X461822Y475183D01*
X456895Y472084D01*
X452780Y468020D01*
X449681Y463092D01*
X447801Y457657D01*
X447141Y451307D01*
X447141Y327456D01*
X447801Y321106D01*
X449681Y315671D01*
X452780Y310743D01*
X456895Y306679D01*
X461822Y303580D01*
X467207Y301701D01*
X473557Y300990D01*
X542442Y300990D01*
X548792Y301701D01*
X554177Y303580D01*
X559104Y306679D01*
X563168Y310743D01*
X566318Y315671D01*
X568147Y321106D01*
X568858Y327456D01*
X568858Y334822D01*
X569569Y338480D01*
X571500Y341630D01*
X574497Y343865D01*
X578104Y344932D01*
X581050Y345236D01*
X588314Y347421D01*
X594918Y350977D01*
X601167Y356108D01*
X804976Y559917D01*
X808278Y562102D01*
X812139Y562864D01*
X816000Y562102D01*
X819353Y559968D01*
X821537Y556666D01*
X823061Y553008D01*
X823874Y549097D01*
X823112Y545185D01*
X820877Y541883D01*
X743864Y464820D01*
X740054Y460095D01*
X737514Y454863D01*
X736295Y449224D01*
X736092Y446024D01*
X736092Y271068D01*
X735330Y267157D01*
X733094Y263906D01*
X729792Y261670D01*
X725932Y260908D01*
X485749Y260908D01*
X475792Y260096D01*
X466648Y257759D01*
X457911Y253949D01*
X449834Y248666D01*
X444296Y243789D01*
X435000Y234492D01*
X431698Y232308D01*
X427786Y231495D01*
X213360Y231495D01*
X207010Y230784D01*
X201574Y228904D01*
X196646Y225806D01*
X192633Y221742D01*
X189484Y216814D01*
X187604Y211378D01*
X186893Y205028D01*
X186893Y56184D01*
X187553Y49885D01*
X187147Y45669D01*
X185064Y42011D01*
X181610Y39471D01*
X177546Y38608D01*
G37*

%LPC*%
G36*
X568553Y550926D02*
G01*
X579120Y550926D01*
X579120Y601726D01*
X542086Y601726D01*
X542086Y577392D01*
X542848Y571042D01*
X544677Y565607D01*
X547827Y560679D01*
X551840Y556615D01*
X556768Y553516D01*
X562203Y551637D01*
G37*
G36*
X626872Y550926D02*
G01*
X637387Y550926D01*
X643737Y551637D01*
X649173Y553516D01*
X654100Y556615D01*
X658215Y560679D01*
X661263Y565607D01*
X663143Y571042D01*
X663854Y577392D01*
X663854Y601726D01*
X626872Y601726D01*
G37*
G36*
X626872Y676910D02*
G01*
X663854Y676910D01*
X663854Y701243D01*
X663143Y707593D01*
X661263Y713028D01*
X658215Y717956D01*
X654100Y722020D01*
X649173Y725119D01*
X643737Y726998D01*
X637387Y727710D01*
X626872Y727710D01*
G37*
G36*
X542086Y676910D02*
G01*
X579120Y676910D01*
X579120Y727710D01*
X568553Y727710D01*
X562203Y726998D01*
X556768Y725119D01*
X551840Y722020D01*
X547827Y717956D01*
X544677Y713028D01*
X542848Y707593D01*
X542086Y701243D01*
G37*
G36*
X649579Y859078D02*
G01*
X677926Y859078D01*
X684225Y859790D01*
X689711Y861720D01*
X694588Y864819D01*
X698754Y868883D01*
X701751Y873810D01*
X703681Y879246D01*
X704392Y885545D01*
X704392Y912418D01*
X649579Y912418D01*
G37*
G36*
X649579Y992581D02*
G01*
X704392Y992581D01*
X704392Y1019454D01*
X703681Y1025753D01*
X701751Y1031189D01*
X698754Y1036116D01*
X694588Y1040180D01*
X689711Y1043279D01*
X684225Y1045210D01*
X677926Y1045921D01*
X649579Y1045921D01*
G37*
G36*
X596900Y1150162D02*
G01*
X606653Y1151026D01*
X616204Y1153566D01*
X625043Y1157681D01*
X633120Y1163320D01*
X640080Y1170279D01*
X645668Y1178306D01*
X649884Y1187246D01*
X652373Y1196695D01*
X653288Y1206500D01*
X652373Y1216304D01*
X649884Y1225753D01*
X645668Y1234694D01*
X640080Y1242720D01*
X638454Y1244295D01*
X636270Y1247597D01*
X635508Y1251508D01*
X635508Y1257909D01*
X636219Y1261618D01*
X638149Y1264767D01*
X641096Y1267002D01*
X644652Y1268069D01*
X652780Y1268831D01*
X658164Y1270711D01*
X663092Y1273810D01*
X667105Y1277874D01*
X670204Y1282801D01*
X672084Y1288237D01*
X672846Y1294587D01*
X672846Y1443532D01*
X672084Y1449882D01*
X670204Y1455318D01*
X667105Y1460246D01*
X663092Y1464310D01*
X658164Y1467408D01*
X652729Y1469288D01*
X646379Y1469999D01*
X547420Y1469999D01*
X541070Y1469288D01*
X535635Y1467408D01*
X530707Y1464310D01*
X526643Y1460246D01*
X523544Y1455318D01*
X521665Y1449882D01*
X520954Y1443532D01*
X520954Y1294587D01*
X521665Y1288237D01*
X523544Y1282801D01*
X526643Y1277874D01*
X530707Y1273810D01*
X535635Y1270711D01*
X541020Y1268831D01*
X549097Y1268069D01*
X552704Y1267002D01*
X555650Y1264767D01*
X557580Y1261618D01*
X558292Y1257909D01*
X558292Y1251508D01*
X557530Y1247597D01*
X555294Y1244295D01*
X553720Y1242720D01*
X548081Y1234694D01*
X543915Y1225753D01*
X541426Y1216304D01*
X540512Y1206500D01*
X541426Y1196695D01*
X543915Y1187246D01*
X548081Y1178306D01*
X553720Y1170279D01*
X560628Y1163320D01*
X568756Y1157681D01*
X577596Y1153566D01*
X587095Y1151026D01*
G37*
G36*
X430123Y1268069D02*
G01*
X448208Y1268069D01*
X454558Y1268831D01*
X459993Y1270711D01*
X464921Y1273810D01*
X468985Y1277874D01*
X472084Y1282801D01*
X474014Y1288237D01*
X474726Y1294587D01*
X474726Y1325168D01*
X430123Y1325168D01*
G37*
G36*
X349300Y1268069D02*
G01*
X367385Y1268069D01*
X367385Y1325168D01*
X322834Y1325168D01*
X322834Y1294587D01*
X323596Y1288237D01*
X325475Y1282801D01*
X328523Y1277874D01*
X332587Y1273810D01*
X337515Y1270711D01*
X342950Y1268831D01*
G37*
G36*
X322834Y1412951D02*
G01*
X367385Y1412951D01*
X367385Y1469999D01*
X349300Y1469999D01*
X342950Y1469288D01*
X337515Y1467408D01*
X332587Y1464310D01*
X328523Y1460246D01*
X325475Y1455318D01*
X323596Y1449882D01*
X322834Y1443532D01*
G37*
G36*
X430123Y1412951D02*
G01*
X474726Y1412951D01*
X474726Y1443532D01*
X474014Y1449882D01*
X472084Y1455318D01*
X468985Y1460246D01*
X464921Y1464310D01*
X459993Y1467408D01*
X454558Y1469288D01*
X448208Y1469999D01*
X430123Y1469999D01*
G37*
G36*
X748080Y2527909D02*
G01*
X766165Y2527909D01*
X766165Y2585008D01*
X721664Y2585008D01*
X721664Y2554427D01*
X722325Y2548077D01*
X724204Y2542641D01*
X727303Y2537714D01*
X731418Y2533650D01*
X736346Y2530551D01*
X741730Y2528671D01*
G37*

%LPD*%
G36*
X913434Y597763D02*
G01*
X762000Y446278D01*
X762000Y203250D01*
X1466850Y203200D01*
X1466850Y444500D01*
X1313484Y597763D01*
G37*
D10*
X412673Y130606D02*
G01*
X485317Y203250D01*
X1114983Y203250D01*
X1113459Y597763D02*
G01*
X1313459Y597763D01*
X913460Y597763D02*
G01*
X1113459Y597763D01*
D11*
X913457Y1047747D02*
G01*
X787400Y921689D01*
X787400Y596897D01*
X573534Y383031D01*
X508000Y383031D01*
X1397000Y2628897D02*
G01*
X1397000Y1625600D01*
X1460500Y1562100D01*
X1196342Y2628897D02*
G01*
X1219200Y2606039D01*
X1219200Y1562100D01*
X998219Y2628897D02*
G01*
X762000Y2392677D01*
X762000Y1562100D01*
X1313456Y1047747D02*
G01*
X1410304Y950899D01*
X1587500Y950899D01*
X398777Y2628897D02*
G01*
X393700Y2623819D01*
X393700Y1574800D01*
X1689100Y393700D02*
G01*
X1968500Y393700D01*
X413003Y632967D02*
G01*
X406400Y639571D01*
X406400Y787400D01*
X406323Y787450D02*
G01*
X408101Y952550D01*
X797483Y1369110D02*
G01*
X960046Y1206553D01*
X1600126Y1206553D01*
X1803379Y1003300D01*
X1968500Y1003300D01*
X998219Y1369059D02*
G01*
X996950Y1257300D01*
X1625526Y1257353D01*
X1676379Y1206500D01*
X1968500Y1206500D01*
X596900Y1369059D02*
G01*
X596900Y1206500D01*
X408000Y952500D02*
G01*
X349250Y952500D01*
X209550Y1092200D01*
X209550Y2698750D01*
X279400Y2768600D01*
X1457959Y2768600D01*
X1597659Y2628900D01*
X1397000Y1369059D02*
G01*
X1333500Y1432559D01*
X1333500Y1498600D01*
X1968500Y800097D02*
G01*
X1968497Y800100D01*
X1784350Y800100D01*
D12*
G01*
X412800Y130606D03*
G01*
X1803450Y130606D03*
D13*
G01*
X1968494Y596899D03*
G01*
X1968494Y1003299D03*
G01*
X1968494Y1206499D03*
G01*
X1968494Y800099D03*
G01*
X1968494Y393699D03*
D14*
G01*
X508000Y389381D03*
G01*
X413003Y639317D03*
G01*
X602995Y639317D03*
D15*
G01*
X608002Y952499D03*
G01*
X407997Y952499D03*
D16*
G01*
X1597659Y2628900D03*
G01*
X1397000Y2628900D03*
G01*
X1196339Y2628900D03*
G01*
X998219Y2628900D03*
G01*
X797560Y2628900D03*
G01*
X596900Y2628900D03*
G01*
X398779Y2628900D03*
G01*
X1597659Y1369059D03*
G01*
X1397000Y1369059D03*
G01*
X1196339Y1369059D03*
G01*
X998219Y1369059D03*
G01*
X797560Y1369059D03*
G01*
X596900Y1369059D03*
G01*
X398779Y1369059D03*
D17*
G01*
X1587500Y750897D03*
D18*
G01*
X1587500Y950899D03*
D19*
G01*
X913460Y1047750D03*
G01*
X1113459Y1047750D03*
G01*
X1313459Y1047750D03*
G01*
X1313459Y597763D03*
G01*
X1113459Y597763D03*
G01*
X913460Y597763D03*
D20*
G01*
X520700Y2933700D03*
G01*
X927100Y2933700D03*
G01*
X1333500Y2933700D03*
G01*
X1739900Y2933700D03*
D21*
G01*
X1115060Y203200D03*
D22*
G01*
X1460500Y1562100D03*
G01*
X1219200Y1562100D03*
G01*
X762000Y1562100D03*
G01*
X1568450Y317500D03*
G01*
X292100Y2882900D03*
G01*
X107950Y685800D03*
G01*
X107950Y387350D03*
G01*
X1536700Y2921000D03*
G01*
X1123950Y2921000D03*
G01*
X1955800Y2844800D03*
G01*
X393700Y1574800D03*
G01*
X406400Y787400D03*
G01*
X1689100Y393700D03*
G01*
X107950Y482600D03*
G01*
X107950Y584200D03*
G01*
X850900Y1879600D03*
G01*
X863600Y2362200D03*
G01*
X1308100Y2451100D03*
G01*
X1308100Y1930400D03*
G01*
X107950Y787400D03*
G01*
X596900Y1206500D03*
G01*
X1333500Y1498600D03*
G01*
X1784350Y800100D03*
G01*
X2120900Y1295400D03*
G01*
X2120900Y241300D03*
G01*
X2114550Y2679700D03*
G01*
X2114550Y2940050D03*
M02*
