G04 Layer: BottomSilkscreenLayer*
G04 EasyEDA v6.5.23, 2023-04-30 22:23:46*
G04 780a14c897c5458fb3efe7b42501c717,664421963ecb4a5db0a4e46f32b0c09c,10*
G04 Gerber Generator version 0.2*
G04 Scale: 100 percent, Rotated: No, Reflected: No *
G04 Dimensions in millimeters *
G04 leading zeros omitted , absolute positions ,4 integer and 5 decimal *
%FSLAX45Y45*%
%MOMM*%

%ADD10C,0.2032*%
%ADD11C,0.1524*%
%ADD12C,0.2000*%

%LPD*%
D10*
X93878Y161086D02*
G01*
X93878Y87426D01*
X130708Y124256D02*
G01*
X57048Y124256D01*
X2169058Y136956D02*
G01*
X2095398Y136956D01*
D11*
X1573773Y1123950D02*
G01*
X1682877Y1123950D01*
X1573773Y1123950D02*
G01*
X1573773Y1077191D01*
X1578968Y1061605D01*
X1584164Y1056408D01*
X1594556Y1051214D01*
X1604947Y1051214D01*
X1615338Y1056408D01*
X1620532Y1061605D01*
X1625727Y1077191D01*
X1625727Y1123950D01*
X1625727Y1087582D02*
G01*
X1682877Y1051214D01*
X1573773Y944186D02*
G01*
X1682877Y996142D01*
X1573773Y1016924D02*
G01*
X1573773Y944186D01*
X1727200Y1601215D02*
G01*
X1727200Y1492250D01*
X1727200Y1601215D02*
G01*
X1680463Y1601215D01*
X1664970Y1596135D01*
X1659636Y1590801D01*
X1654556Y1580387D01*
X1654556Y1569973D01*
X1659636Y1559559D01*
X1664970Y1554479D01*
X1680463Y1549400D01*
X1727200Y1549400D01*
X1690877Y1549400D02*
G01*
X1654556Y1492250D01*
X1568195Y1601215D02*
G01*
X1620265Y1528571D01*
X1542288Y1528571D01*
X1568195Y1601215D02*
G01*
X1568195Y1492250D01*
X1155700Y1588515D02*
G01*
X1155700Y1479550D01*
X1155700Y1588515D02*
G01*
X1108963Y1588515D01*
X1093469Y1583435D01*
X1088135Y1578101D01*
X1083055Y1567687D01*
X1083055Y1557273D01*
X1088135Y1546859D01*
X1093469Y1541779D01*
X1108963Y1536700D01*
X1155700Y1536700D01*
X1119377Y1536700D02*
G01*
X1083055Y1479550D01*
X986281Y1588515D02*
G01*
X1038352Y1588515D01*
X1043431Y1541779D01*
X1038352Y1546859D01*
X1022603Y1552193D01*
X1007110Y1552193D01*
X991615Y1546859D01*
X981202Y1536700D01*
X975868Y1520951D01*
X975868Y1510537D01*
X981202Y1495043D01*
X991615Y1484629D01*
X1007110Y1479550D01*
X1022603Y1479550D01*
X1038352Y1484629D01*
X1043431Y1489709D01*
X1048765Y1500123D01*
X685800Y1588515D02*
G01*
X685800Y1479550D01*
X685800Y1588515D02*
G01*
X639063Y1588515D01*
X623569Y1583435D01*
X618235Y1578101D01*
X613155Y1567687D01*
X613155Y1557273D01*
X618235Y1546859D01*
X623569Y1541779D01*
X639063Y1536700D01*
X685800Y1536700D01*
X649477Y1536700D02*
G01*
X613155Y1479550D01*
X516381Y1573021D02*
G01*
X521715Y1583435D01*
X537210Y1588515D01*
X547623Y1588515D01*
X563118Y1583435D01*
X573531Y1567687D01*
X578865Y1541779D01*
X578865Y1515871D01*
X573531Y1495043D01*
X563118Y1484629D01*
X547623Y1479550D01*
X542289Y1479550D01*
X526795Y1484629D01*
X516381Y1495043D01*
X511302Y1510537D01*
X511302Y1515871D01*
X516381Y1531365D01*
X526795Y1541779D01*
X542289Y1546859D01*
X547623Y1546859D01*
X563118Y1541779D01*
X573531Y1531365D01*
X578865Y1515871D01*
X1695957Y2363215D02*
G01*
X1706372Y2358135D01*
X1716786Y2347721D01*
X1722120Y2337307D01*
X1727200Y2321559D01*
X1727200Y2295651D01*
X1722120Y2280157D01*
X1716786Y2269743D01*
X1706372Y2259329D01*
X1695957Y2254250D01*
X1675129Y2254250D01*
X1664970Y2259329D01*
X1654556Y2269743D01*
X1649222Y2280157D01*
X1644141Y2295651D01*
X1644141Y2321559D01*
X1649222Y2337307D01*
X1654556Y2347721D01*
X1664970Y2358135D01*
X1675129Y2363215D01*
X1695957Y2363215D01*
X1680463Y2274823D02*
G01*
X1649222Y2243835D01*
X1609852Y2342387D02*
G01*
X1599438Y2347721D01*
X1583689Y2363215D01*
X1583689Y2254250D01*
X794326Y2363238D02*
G01*
X804717Y2358044D01*
X815108Y2347653D01*
X820305Y2337262D01*
X825500Y2321674D01*
X825500Y2295697D01*
X820305Y2280112D01*
X815108Y2269721D01*
X804717Y2259329D01*
X794326Y2254135D01*
X773544Y2254135D01*
X763155Y2259329D01*
X752764Y2269721D01*
X747567Y2280112D01*
X742373Y2295697D01*
X742373Y2321674D01*
X747567Y2337262D01*
X752764Y2347653D01*
X763155Y2358044D01*
X773544Y2363238D01*
X794326Y2363238D01*
X778741Y2274915D02*
G01*
X747567Y2243744D01*
X697692Y2363238D02*
G01*
X640542Y2363238D01*
X671715Y2321674D01*
X656127Y2321674D01*
X645736Y2316479D01*
X640542Y2311285D01*
X635345Y2295697D01*
X635345Y2285306D01*
X640542Y2269721D01*
X650933Y2259329D01*
X666518Y2254135D01*
X682104Y2254135D01*
X697692Y2259329D01*
X702886Y2264524D01*
X708083Y2274915D01*
X1264226Y2363238D02*
G01*
X1274617Y2358044D01*
X1285008Y2347653D01*
X1290205Y2337262D01*
X1295400Y2321674D01*
X1295400Y2295697D01*
X1290205Y2280112D01*
X1285008Y2269721D01*
X1274617Y2259329D01*
X1264226Y2254135D01*
X1243444Y2254135D01*
X1233055Y2259329D01*
X1222664Y2269721D01*
X1217467Y2280112D01*
X1212273Y2295697D01*
X1212273Y2321674D01*
X1217467Y2337262D01*
X1222664Y2347653D01*
X1233055Y2358044D01*
X1243444Y2363238D01*
X1264226Y2363238D01*
X1248641Y2274915D02*
G01*
X1217467Y2243744D01*
X1172786Y2337262D02*
G01*
X1172786Y2342456D01*
X1167592Y2352847D01*
X1162395Y2358044D01*
X1152004Y2363238D01*
X1131224Y2363238D01*
X1120833Y2358044D01*
X1115636Y2352847D01*
X1110442Y2342456D01*
X1110442Y2332065D01*
X1115636Y2321674D01*
X1126027Y2306088D01*
X1177983Y2254135D01*
X1105245Y2254135D01*
X1740915Y2584450D02*
G01*
X1631950Y2584450D01*
X1740915Y2584450D02*
G01*
X1740915Y2631185D01*
X1735836Y2646679D01*
X1730502Y2652013D01*
X1720088Y2657093D01*
X1709673Y2657093D01*
X1699259Y2652013D01*
X1694179Y2646679D01*
X1689100Y2631185D01*
X1689100Y2584450D01*
X1689100Y2620771D02*
G01*
X1631950Y2657093D01*
X1720088Y2691384D02*
G01*
X1725422Y2701797D01*
X1740915Y2717545D01*
X1631950Y2717545D01*
X1271015Y2565400D02*
G01*
X1162050Y2565400D01*
X1271015Y2565400D02*
G01*
X1271015Y2612135D01*
X1265936Y2627629D01*
X1260602Y2632963D01*
X1250188Y2638043D01*
X1239773Y2638043D01*
X1229359Y2632963D01*
X1224279Y2627629D01*
X1219200Y2612135D01*
X1219200Y2565400D01*
X1219200Y2601721D02*
G01*
X1162050Y2638043D01*
X1245107Y2677667D02*
G01*
X1250188Y2677667D01*
X1260602Y2682747D01*
X1265936Y2688081D01*
X1271015Y2698495D01*
X1271015Y2719069D01*
X1265936Y2729484D01*
X1260602Y2734817D01*
X1250188Y2739897D01*
X1239773Y2739897D01*
X1229359Y2734817D01*
X1213865Y2724403D01*
X1162050Y2672334D01*
X1162050Y2745231D01*
X801138Y2565400D02*
G01*
X692035Y2565400D01*
X801138Y2565400D02*
G01*
X801138Y2612158D01*
X795944Y2627744D01*
X790747Y2632941D01*
X780356Y2638135D01*
X769965Y2638135D01*
X759574Y2632941D01*
X754379Y2627744D01*
X749183Y2612158D01*
X749183Y2565400D01*
X749183Y2601767D02*
G01*
X692035Y2638135D01*
X801138Y2682816D02*
G01*
X801138Y2739966D01*
X759574Y2708793D01*
X759574Y2724381D01*
X754379Y2734772D01*
X749183Y2739966D01*
X733597Y2745163D01*
X723206Y2745163D01*
X707621Y2739966D01*
X697229Y2729575D01*
X692035Y2713989D01*
X692035Y2698404D01*
X697229Y2682816D01*
X702424Y2677622D01*
X712815Y2672425D01*
D12*
X1899201Y911593D02*
G01*
X1999178Y911593D01*
X1999203Y1285582D01*
X1895190Y1285582D01*
X1809203Y1285544D02*
G01*
X1707222Y1285544D01*
X1707197Y911555D01*
X1811228Y911555D01*
D11*
X1495419Y1806209D02*
G01*
X1623913Y1806209D01*
X1623913Y1622790D01*
X1495419Y1622790D01*
X1400180Y1806209D02*
G01*
X1271686Y1806209D01*
X1271686Y1622790D01*
X1400180Y1622790D01*
X1038219Y1806209D02*
G01*
X1166713Y1806209D01*
X1166713Y1622790D01*
X1038219Y1622790D01*
X942980Y1806209D02*
G01*
X814486Y1806209D01*
X814486Y1622790D01*
X942980Y1622790D01*
X568319Y1806209D02*
G01*
X696813Y1806209D01*
X696813Y1622790D01*
X568319Y1622790D01*
X473080Y1806209D02*
G01*
X344586Y1806209D01*
X344586Y1622790D01*
X473080Y1622790D01*
X405180Y2058692D02*
G01*
X405180Y2233932D01*
X509341Y2233932D01*
X712419Y2058692D02*
G01*
X712419Y2233932D01*
X608258Y2233932D01*
X513260Y2058692D02*
G01*
X604339Y2058692D01*
X875080Y2058692D02*
G01*
X875080Y2233932D01*
X979241Y2233932D01*
X1182319Y2058692D02*
G01*
X1182319Y2233932D01*
X1078158Y2233932D01*
X983160Y2058692D02*
G01*
X1074239Y2058692D01*
X1344980Y2058692D02*
G01*
X1344980Y2233932D01*
X1449141Y2233932D01*
X1652219Y2058692D02*
G01*
X1652219Y2233932D01*
X1548058Y2233932D01*
X1453060Y2058692D02*
G01*
X1544139Y2058692D01*
X1406890Y2613019D02*
G01*
X1406890Y2741513D01*
X1590309Y2741513D01*
X1590309Y2613019D01*
X1406890Y2517780D02*
G01*
X1406890Y2389286D01*
X1590309Y2389286D01*
X1590309Y2517780D01*
X936990Y2613019D02*
G01*
X936990Y2741513D01*
X1120409Y2741513D01*
X1120409Y2613019D01*
X936990Y2517780D02*
G01*
X936990Y2389286D01*
X1120409Y2389286D01*
X1120409Y2517780D01*
X467090Y2613019D02*
G01*
X467090Y2741513D01*
X650509Y2741513D01*
X650509Y2613019D01*
X467090Y2517780D02*
G01*
X467090Y2389286D01*
X650509Y2389286D01*
X650509Y2517780D01*
M02*
