G04 Layer: TopPasteMaskLayer*
G04 EasyEDA v6.5.23, 2023-04-30 22:23:46*
G04 780a14c897c5458fb3efe7b42501c717,664421963ecb4a5db0a4e46f32b0c09c,10*
G04 Gerber Generator version 0.2*
G04 Scale: 100 percent, Rotated: No, Reflected: No *
G04 Dimensions in millimeters *
G04 leading zeros omitted , absolute positions ,4 integer and 5 decimal *
%FSLAX45Y45*%
%MOMM*%

%ADD10R,4.0000X1.5000*%
%ADD11R,0.7000X1.2500*%
%ADD12R,1.0008X1.5011*%

%LPD*%
G36*
X345490Y1023518D02*
G01*
X340512Y1018489D01*
X340512Y890524D01*
X345490Y885494D01*
X460501Y885494D01*
X465480Y890524D01*
X465023Y932484D01*
X420979Y932484D01*
X420979Y977493D01*
X465988Y977493D01*
X465480Y1018489D01*
X460501Y1023518D01*
G37*
G36*
X560476Y1023518D02*
G01*
X555498Y1018489D01*
X556006Y977493D01*
X599998Y977493D01*
X599998Y932484D01*
X555498Y932484D01*
X555498Y890524D01*
X560476Y885494D01*
X675487Y885494D01*
X680516Y890524D01*
X680516Y1018489D01*
X675487Y1023518D01*
G37*
G36*
X1525524Y1018387D02*
G01*
X1520494Y1013409D01*
X1520494Y898398D01*
X1525524Y893419D01*
X1567484Y893876D01*
X1567484Y937920D01*
X1612493Y937920D01*
X1612493Y892911D01*
X1653489Y893419D01*
X1658518Y898398D01*
X1658518Y1013409D01*
X1653489Y1018387D01*
G37*
G36*
X1525524Y803402D02*
G01*
X1520494Y798423D01*
X1520494Y683412D01*
X1525524Y678383D01*
X1653489Y678383D01*
X1658518Y683412D01*
X1658518Y798423D01*
X1653489Y803402D01*
X1612493Y802894D01*
X1612493Y758901D01*
X1567484Y758901D01*
X1567484Y803402D01*
G37*
D10*
G01*
X412800Y130606D03*
G01*
X1803450Y130606D03*
D11*
G01*
X508000Y389381D03*
G01*
X413003Y639317D03*
G01*
X602995Y639317D03*
D12*
G01*
X1597659Y2628900D03*
G01*
X1397000Y2628900D03*
G01*
X1196339Y2628900D03*
G01*
X998219Y2628900D03*
G01*
X797560Y2628900D03*
G01*
X596900Y2628900D03*
G01*
X398779Y2628900D03*
G01*
X1597659Y1369059D03*
G01*
X1397000Y1369059D03*
G01*
X1196339Y1369059D03*
G01*
X998219Y1369059D03*
G01*
X797560Y1369059D03*
G01*
X596900Y1369059D03*
G01*
X398779Y1369059D03*
M02*
